<?xml version="1.0" encoding="UTF-8"?>
<svg id="Layer_1" data-name="Layer 1" xmlns="http://www.w3.org/2000/svg" xmlns:xlink="http://www.w3.org/1999/xlink" viewBox="0 0 960 960">
  <defs>
    <style>
      .cls-1 {
        fill: #b6a200;
      }

      .cls-1, .cls-2, .cls-3, .cls-4, .cls-5, .cls-6, .cls-7, .cls-8, .cls-9, .cls-10, .cls-11, .cls-12, .cls-13, .cls-14 {
        stroke-width: 0px;
      }

      .cls-2 {
        fill: #00adee;
      }

      .cls-15 {
        clip-path: url(#clippath-13);
      }

      .cls-16, .cls-6 {
        fill: #baa203;
      }

      .cls-4 {
        fill: none;
      }

      .cls-5 {
        fill: #d43c10;
      }

      .cls-17 {
        clip-path: url(#clippath-7);
      }

      .cls-18 {
        clip-path: url(#clippath-1);
      }

      .cls-19 {
        clip-path: url(#clippath-4);
      }

      .cls-20 {
        clip-path: url(#clippath-12);
      }

      .cls-7 {
        fill: #fff;
      }

      .cls-8 {
        fill: #e9f5ff;
      }

      .cls-9 {
        fill: url(#radial-gradient-2);
      }

      .cls-10 {
        fill: url(#radial-gradient);
      }

      .cls-11 {
        fill: #231f20;
        fill-rule: evenodd;
      }

      .cls-12 {
        fill: #ac9b05;
      }

      .cls-21 {
        clip-path: url(#clippath-10);
      }

      .cls-13 {
        fill: #b29f01;
      }

      .cls-14 {
        fill: #e12904;
      }
    </style>
    <clipPath id="clippath-1">
      <polygon class="cls-6" points="146.36 384 145.7 385.69 144.03 384.96 138.96 382.75 141.18 387.82 141.9 389.49 140.21 390.16 135.05 392.17 140.21 394.2 141.9 394.86 141.18 396.53 138.96 401.61 144.03 399.39 145.7 398.66 146.36 400.35 148.38 405.51 150.39 400.35 151.07 398.66 152.74 399.39 157.81 401.61 155.59 396.53 154.87 394.86 156.56 394.2 161.72 392.17 156.56 390.16 154.87 389.49 155.59 387.82 157.81 382.75 152.74 384.96 151.07 385.69 150.39 384 148.38 378.85 146.36 384"/>
    </clipPath>
    <clipPath id="clippath-4">
      <polygon class="cls-6" points="146.36 544.72 145.7 546.42 144.03 545.69 138.96 543.47 141.18 548.54 141.9 550.21 140.21 550.89 135.05 552.9 140.21 554.93 141.9 555.58 141.18 557.26 138.96 562.33 144.03 560.12 145.7 559.38 146.36 561.08 148.38 566.23 150.39 561.08 151.07 559.38 152.74 560.12 157.81 562.33 155.59 557.26 154.87 555.58 156.56 554.93 161.72 552.9 156.56 550.89 154.87 550.21 155.59 548.54 157.81 543.47 152.74 545.69 151.07 546.42 150.39 544.72 148.38 539.57 146.36 544.72"/>
    </clipPath>
    <clipPath id="clippath-7">
      <polygon class="cls-6" points="64.9 461.8 64.24 463.5 62.57 462.77 57.5 460.56 59.72 465.62 60.44 467.3 58.75 467.97 53.59 469.98 58.75 472.01 60.44 472.67 59.72 474.34 57.5 479.41 62.57 477.2 64.24 476.46 64.9 478.16 66.92 483.31 68.93 478.16 69.61 476.46 71.28 477.2 76.36 479.41 74.13 474.34 73.41 472.67 75.11 472.01 80.27 469.98 75.11 467.97 73.41 467.3 74.13 465.62 76.36 460.56 71.28 462.77 69.61 463.5 68.93 461.8 66.92 456.65 64.9 461.8"/>
    </clipPath>
    <clipPath id="clippath-10">
      <polygon class="cls-6" points="227.61 461.8 226.95 463.5 225.28 462.77 220.21 460.56 222.43 465.62 223.15 467.3 221.46 467.97 216.3 469.98 221.46 472.01 223.15 472.67 222.43 474.34 220.21 479.41 225.28 477.2 226.95 476.46 227.61 478.16 229.63 483.31 231.64 478.16 232.32 476.46 233.99 477.2 239.06 479.41 236.84 474.34 236.12 472.67 237.81 472.01 242.97 469.98 237.81 467.97 236.12 467.3 236.84 465.62 239.06 460.56 233.99 462.77 232.32 463.5 231.64 461.8 229.63 456.65 227.61 461.8"/>
    </clipPath>
    <clipPath id="clippath-12">
      <path class="cls-4" d="M161.78,454.58c3.33-.48,7.21-1.57,10.96-2.62,5.06-1.41,10.28-2.88,14.2-2.88,2.68,0,8.54,1.37,8.54,5.45,0,2.58-.91,3.95-2.6,5.57l-.1.08c-3.05,2.05-10.85,2.08-10.93,2.08-1.84,0-6.73,0-8.86-1.76-1.09-.9-1.37-1.06-1.43-1.09-1.07-.45-2.06-.63-3.39-.63-2.76,0-5.76.82-8.66,1.61-2.78.76-5.4,1.48-7.74,1.48-.16,0-.46-.05-.73-.36-.98-1.15-1.54-7.69-1.18-9.87l.04-.23,1.28-1.29.44.96c1.16,2.54,3.5,3.82,6.96,3.82,1,0,2.08-.1,3.21-.32M155.32,446.39c-.13-.97.29-2.07,1.16-3.09,1.25-1.46,3.09-2.4,4.7-2.4.67,0,1.29.16,1.84.46,1.16.78,2.1,1.77,3.01,2.73,1.09,1.15,2.23,2.35,3.67,3.14l.37.21v.43c0,.44,0,.9-3.74,2.05-.81.25-3.59,1.07-5.24,1.07-3.87,0-5.76-1.5-5.78-4.59M125.65,429.98c.03.08.05.17.07.25.09.32.17.6.17.85v1.08l-1-.41s-.77-.31-1.87-.31c-.65,0-1.3.11-1.92.32l-.11.04h-.12c-.33,0-.66-.02-.97-.07.08.15.13.31.13.48v.14c-.35,1.71-1.79,2.46-2.85,3-.05.03-.11.06-.17.09.34.26.67.54.97,1.15.39.68-.2,1.48-2.03,3.19.02,0,.03,0,.05.01.32.11.62.21.86.32,1.04.5.85,1.18.77,1.38-.36.71-.84,1.27-1.31,1.81-.49.56-.95,1.1-1.21,1.69.31,0,.65.07.98.24l.78.38-.51.7c-.09.12-.17.23-.24.35-.82,1.22-1.5,2.7-2.21,4.8l.6.08.03.64c0,1.27-.4,2.16-.83,3.04l-.07.12-.1.09c-.18.17-.42.26-.67.26-1.15,0-2.31-2.11-2.9-3.37-.47-.99-1.56-3.56-1.56-6.01,0-5.99.84-7.06,1.39-7.77.18-.22.2-.25.2-.48,0-.67-.25-.81-1.03-1.14-.53-.23-1.18-.51-1.62-1.16-.83-1.42-2.54-2.34-4.31-2.34-.43,0-.83.06-1.19.16.59.29,1.15.77,1.69,1.81.42.91-.02,1.43-.23,1.68-.13.15-.13.17-.13.23v.73h-.73c-.2,0-.37.04-.55.08-.46.11-1.04.11-1.44-.25-.88-.65-2.29-1.35-3.69-1.35-.7,0-1.32.17-1.87.52l-.16.64.27-.67.55.25c.06.03.11.06.17.09.08.04.14.08.19.11l.13.08c.09.06.16.1.22.14l.49.38c.05.05.11.1.17.15l.14.13c.06.06.11.12.17.18.04.04.08.09.13.15.04.06.1.12.14.18l.12.17c.05.07.09.13.13.2.05.08.08.13.11.18.04.07.08.14.12.22.02.05.06.12.09.19.02.04.05.11.08.18l.09.23c.04.09.06.18.08.26l.11.42c.02.16.04.45-.05.72l-.03.09s-.04.08-.06.11c-.03.07-.06.11-.07.15-.03.05-.06.09-.08.13,0,.01-.04.06-.08.11l-.07.08s-.07.07-.11.11l-.22.16s-.07.03-.11.06c-.06.03-.1.05-.14.06l-.11.03s-.08.02-.13.03l-.25.02-.35-.03s-.08-.02-.12-.03c-.02,0-.06-.01-.09-.03l-.23-.08s-.05-.01-.09-.03l-.56-.32.35-.64-.41.6-.18-.13s-.06-.05-.1-.07l-.29-.25.41-.61-.49.54-.08-.07.44-.59-.5.53-.08-.08.46-.57-.53.5-.05-.05c-.06.2-.1.42-.13.64l-.03.28c-.09,1.26.25,2.75,1.48,3.28,0,0,.14.01.22.01.07,0,.14-.01.2-.01.88,0,1.08.8,1.16,1.14.05.18.09.37.17.44.06.03.08.05.12.06l.13.06s.09.04.16.06c.07.01.1.02.14.03.22.02.29.01.37,0,.09,0,.15,0,.2-.01l1-.14c.12-.01.18-.02.25-.02.37,0,.71.12,1.01.35l.06.05h0s.02.02.02.02c.05.04.1.1.14.15.09.1.13.16.16.22l.04.08c.02.06.05.12.07.18l.03.14c.01.06.02.14.01.23v.1s-.02.11-.05.19l-.02.08c-.02.05-.04.11-.07.16l-.04.09s-.07.11-.11.18l-.05.07s-.07.08-.11.13c-.1.11-.22.24-.38.38l-.18.12c-.11.06-.22.1-.35.14l-.3.07s-.06.01-.1.01l-.28.02h-.16c-.07,0-.12-.01-.18-.02l-.25-.03.08-.72-.17.71v-.73s-.1.72-.1.72h-.1c.04.33.14.71.34.95.55.61,1.28.96,2.17,1.02.11.01.19.02.29.02.56,0,1.01.31,1.23.84.27.65.13,1.53-.33,1.98l-.11.09c-.64.42-1.23.76-1.8,1.08-1.1.62-1.98,1.12-2.68,2.01,1.22.01,1.65.73,1.65,1.35,0,.99-.42,1.59-.88,2.07.53.03.92.24,1.18.64.74.84-.21,1.84-.97,2.64-.31.33-.71.76-.99,1.14.31-.05.64-.08.94-.08,1.45,0,2.4.74,2.66,2.09l.02.14c0,.71-.24,1.44-.66,2.1.27-.04.53-.07.77-.07.77,0,1.16.34,1.35.66.5.67-.2,1.35-.82,1.95-.24.23-.53.51-.78.81.63-.13,1.31-.13,2.02.1l.3.1.13.28c.27.56.23,1.17-.11,1.72-.43.7-1.35,1.25-2.17,1.6.59.24,1.41.37,2.38.37,1.56,0,3.27-.34,4.36-.87l.82-.4.2.89c.49,2.11,2.57,2.69,3.81,3.04.68.19,1.31.36,1.31,1.03v.32l-.23.21c-1.08,1.02-2.02,3.11-1.77,3.92l.03.14c.23,2.13-.34,4.14-1.56,5.5-1.13,1.26-2.74,1.93-4.65,1.93-2.35,0-5.18-.37-6.17-3.21-.54-1.65-1.47-1.8-2.8-.85l-.35.25-.39-.19c-.35-.17-.75-.26-1.17-.26-1.3,0-2.73.86-3.56,2.02,1.37.18,3.17.9,3.73,2.23.27.65.34,1.7-.89,2.93l-.21.21h-.3c-1.72,0-2.89,1.04-3.38,2.98,1-.22,1.9-.34,2.68-.34,2.77,0,3.25,1.4,3.33,1.99.21,1.59-1.39,3.31-3.85,4.3.95.69,1.78,1,2.58,1,.89,0,1.8-.36,2.95-.82.29-.12.58-.23.89-.35.61-.3,1.16-.2,1.51-.08l.22.08c.85.37,1.13.08,1.64-1.24.21-.55.4-1.02.76-1.32.23-.21.57-.34.94-.34.35,0,.66.11.85.21.34.16.57.53.64.73l.02.08c.03.11.05.22.07.32.03.16.04.27.05.37,0,.14,0,.24,0,.35-.01.14-.02.23-.03.32v.05c-.02.08-.04.16-.05.23-.03.1-.05.19-.07.25l-.03.08s-.02.07-.03.09l-.02.1-.05.07s-.01.03-.02.05l.18.65-.08-.73.08-.02.23.69-.13-.71.27.68-.19-.71.3-.12.41.61-.34-.65.33-.21s.06-.05.09-.07l.23-.2s.05-.06.09-.1l.19-.2c.15-.18.31-.38.44-.59l.26-.44.67.29-.61-.41.17-.34.7.22-.64-.35.14-.35.72.15-.68-.25.4-1.51c.02-.19.04-.33.05-.47.02-.27.25-1.01.52-1.31.1-.11.2-.24.32-.37l.41-.42s.06-.04.1-.09l.39-.28h0c.07-.04.13-.08.2-.12l.07-.03s.07-.03.1-.04l.12-.05s.08-.02.12-.03l.08-.02c.08-.01.13-.02.18-.02.7-.15,1.37.15,2.11.51.86.42,1.93.94,3.63.94.83,0,1.75-.13,2.75-.39-.22-.46-.44-1.15.16-1.65l.11-.09.77-.26c.89-.29,1.81-.6,2.68-.92.72-.62,1.58-.83,2.36-1.03.29-.08.57-.15.83-.23-.22-.22-.38-.5-.38-.83v-.3l.22-.22c.29-.29.75-.38,1.33-.51.06-.02.13-.03.21-.05-.16-.15-.25-.34-.25-.56-.03-.7.64-1.1,2.93-2.39.68-.38,1.68-.94,2.27-1.34-.65-.64-1.25-1.61-1.37-2.16-.15-.71.2-1.16.59-1.33l.33-.11c1.02-.33,2.28-.74,2.9-1.6l.14-.19.22-.07c.29-.1,1.02-.32,2-.63,2.91-.91,7.76-2.44,10.09-3.28l.98-.35v1.48s-.53.11-.53.11v.03s.53-.01.53-.01l.05,1.07c0,.1.02.18.02.25l.04.37c.02.14.03.21.05.28v.07c.15.76.38,1.29.76,1.71l.34.33c.65.57,1.46.93,2.85,1.27.35.05.8.08,1.29.08.64,0,1.29-.05,1.99-.1,1.32-.1,2.78-.17,4.04,0,1.25.02,2.19.85,2.35,2.08.19,1.39-.64,3.08-2.59,3.63-1.67.47-3.32.47-4.92.47h-.07c-2.8-.31-3.57-1.13-4.6-2.43l-.23-.28c-.25-.25-.28-.28-.98-.66-.41-.22-.8-.35-1.2-.5-.55-.19-1.13-.39-1.75-.83-.18-.13-.36-.29-.54-.5-.16-.19-.3-.38-.44-.58l-.1-.14c-.49-.71-.82-1.14-1.38-1.14-.6,0-1.07.18-1.43.55l-.41.41-.49-.31c-1.11-.7-2.98-.14-4.05,1.11-.3.35-.51.71-.63,1.08.09-.02.16-.03.23-.04.14-.02.24-.03.33-.03h.1c.08,0,.16,0,.24.01l.35.04c.1.02.21.05.31.08h.02c.1.04.21.08.31.12l.05.03c.09.04.18.09.27.14.11.07.2.13.27.19l.1.08c.07.06.16.14.25.22l.03.04c.07.07.14.15.21.24l.18.18v.07s.04.06.05.09l.04.07c.06.1.13.22.19.34l.04.09c.1.23.2.53.08,1.06-.1.44-.48,1.27-1.24,1.27-.2,0-.38-.06-.55-.19-.41-.22-.81-.33-1.21-.33-1.28,0-2.34,1.15-2.78,2.22-.11.26-.17.49-.19.68,1.4-.64,2.92-.47,4.21.49,1.1.59,1.1,1.73,1.1,2.57v.53l-.5.17c-1.94.62-2.9,1.2-3.58,3.91,1.82-1.04,3.65-1.04,5.3-1.04h.3l.21.21c.97.95,2.18,1.26,2.99.68.8-.58,1.62-1.54,2.29-2.3.81-.93,1.25-1.43,1.72-1.63l.08-.04c.16-.07.38-.17.66-.17.23,0,.68.08,1,.62.37.64.17,1.59.09,1.87-.23.85-.84,1.44-1.5,1.93.2.07.46.12.8.12,1.07,0,1.73-.04,2.38-.31.11-.04.21-.08.29-.13.17-.08.32-.17.46-.26.24-.16.48-.23.72-.23l.23.03c.22.04.39.18.52.36.16.25.18.57.08.93-.05.23-.16.5-.28.77,1.38.11,2.26-.31,2.77-1.29l.47-.93.7.76c.28.3.5.62.72.93.17.24.33.46.5.65.19-.95.66-2.14,1.77-2.85l1.12-.71v1.32c0,.37.38,1.47.74,2.1.18-.47.41-1.01.65-1.37,0-.01.52-.78,1.07-.8.63,0,.89.53,1.28,1.25.12.24.36.69.57.99.53-1.13,1.4-2.63,1.83-3.06l.29-.28.39.09c.28.06.58.14.89.22.97.25,2.06.53,3.02.6-.97-1.35-1.27-2.29-1.27-4.03,0-.14.01-.27.03-.39.02-.11.05-.22.08-.33.31-.91,1.04-1.43,1.7-1.88l.22-.16c.37-.25.73-.51.95-.8.76-.98.92-1.33.93-2.2-.23-.77-1.07-1.37-1.95-2.01-.46-.34-.94-.69-1.36-1.08-1.96-2.04-.45-5.12-.43-5.15.13-.26.23-.46.47-.67l.46-.37.46.37c1.82,1.46,3.39,2.65,5.07,3.88,1.27,1.02,3.01,1.58,4.93,1.58.53,0,1.07-.04,1.6-.13.61-.08,1.29-.13,1.99-.13,3.41,0,7.06,1.05,7.06,4,0,1.79-1.97,4.29-3.9,4.29-.18,0-.36-.02-.53-.07l-.13-.03-.11-.08c-.69-.47-1.05-1.26-1.37-1.96-.38-.83-.64-1.34-1.11-1.46l-.14-.04c-.34-.17-1.16.26-1.96,1.01l-.35.32-.43-.19c-2.63-1.1-4.63-.42-6.14,2.14.02,0,.05,0,.08-.01.42-.09.87-.14,1.32-.14,1.58,0,3.03.57,3.98,1.57l.2.21v.29c0,.51-.32.74-.47.85-.16.11-.5.37-1.15,1.47l-.16.28-.32.06c-1.34.27-3,2.5-3.28,4.85,1.6-.86,3.52-1.63,5.85-1.63h.3l.21.21c.59.59.59,1.6.59,2.09v.46l-.41.19c-1.39.68-2.69,1.08-3.97,1.22,1.04.77,2.5,1.22,4.04,1.22,1.31,0,2.47-.35,3.02-.89l.25-.25.35.05c1.47.18,2.59-.25,3.15-1.16.43-.71.44-1.63.01-2.45-.18-.35-.17-.77.02-1.15.19-.36.54-.62.91-.67.13-.04.31-.05.5-.05.71,0,1.34.31,1.84.91.67.82,1.03,2.18.96,3.52.61-.1,1.3-.64,1.89-1.48l.05-.06c.15-.17.26-.36.37-.61.25-.49.4-.91.45-1.24l.1-.61h.62c1.86,0,3.16-.27,5.02-1.67-.36-.16-.67-.35-.92-.58l-.12-.11c-.23-.2-.82-.72-.38-1.48l.04-.07c.28-.39.88-.73,1.83-1.25.33-.18.69-.37.97-.55-.26-.25-.54-.56-.54-1.01v-.17l.07-.15c.25-.5.77-.82,1.27-1.13.14-.09.3-.18.44-.28-.52-.14-.98-.41-.98-.99v-.28l.18-.2c.14-.15.35-.34.8-.71.56-.46,1.42-1.18,2.11-1.9-.96,0-1.65-.24-2.12-.75l-.35-.37.23-.46c.39-.77.89-1.17,1.3-1.42-.28-.1-.56-.23-.79-.46l-.08-.08-.05-.11c-.32-.64-.02-1.33.31-2.05.23-.51.47-1.07.49-1.59,0,0-.02,0-.03.01-.08.03-.18.07-.27.1-.54.17-.94.02-1.14-.34-.28-.48-.03-.94.32-1.57.12-.21.36-.66.48-1-.61.23-1.19.51-1.79.81-1.42.69-2.89,1.42-4.75,1.42-.29,0-.58-.02-.87-.06l-.29-.03-.26-.32c-.08-.11-.16-.28-.26-.49-.34-.7-.85-1.77-2.6-1.92-.16,0-.29.06-.44.17-1.47,1.04-3.64,2.14-5.33,2.14-.49,0-.92-.09-1.3-.26l-.2-.11c-.09-.06-.16-.1-.22-.15-.07-.05-.14-.11-.22-.18-1.06-.97-1.57-2.66-1.92-4.19-.04-.18-.1-.43-.16-.73-.16-.73-.52-2.43-.71-2.75-.51-.83-1.49-1.53-2.54-2.26-1.6-1.12-3.41-2.4-4.32-4.65l-.03-.09c-.04-.1-.07-.2-.11-.31l-.41-1.21,6.23.9,1.04.02,4.32-.38,2.72-.77,2.41-1.28,1.43-1.25,1.27-1.77.09-.17c.04-.07.07-.13.1-.19l.07-.16c.05-.1.08-.16.1-.22l.31-.81c.02-.07.05-.14.07-.21.03-.09.05-.15.07-.22l.12-.45c.03-.09.04-.16.05-.23l.27-2.05.04-1.12v-.19c-.02-.45.13-.78.49-1.04v-.02l.53-.3c.2-.12.42-.25.67-.4l.48-.32c.14-.1.28-.2.42-.32.1-.08.15-.13.21-.17l.26-.25c.06-.06.12-.11.17-.17.1-.11.17-.19.23-.26l.05-.06s.08-.1.13-.17l.63.35-.59-.42c.04-.06.08-.11.11-.17l.67.3-.61-.39c.04-.06.08-.12.11-.18l.68.28-.64-.35c.09-.17.18-.35.25-.55v-.05c.05-.1.07-.17.09-.24l.03-.09c.02-.08.03-.14.05-.19l.03-.14c.02-.1.04-.2.05-.28.02-.18.03-.29.04-.42v-.08c0-.11,0-.2,0-.29v-.13c-.02-.1-.02-.19-.03-.28v-.09c-.03-.16-.05-.26-.07-.36l-.03-.2c-.04-.17-.14-.68-.12-1.08v-.02c0-.1,0-.2,0-.3v-.1c0-.07.01-.18.02-.29.01-.16.02-.27.04-.37v-.06c.02-.12.04-.24.06-.35v-.07c.04-.12.07-.25.1-.37,0-.04.02-.07.03-.1-.08.07-.15.13-.21.19-.81.76-1.74,1.61-2.8,1.61-1.43,0-2.44-1.39-3.25-4.48-.4.68-1.02,1.25-1.71,1.25h-.13c-.07-.02-.12-.03-.17-.04l-.1-.03c-1.13-.44-2.02-1.74-2.87-3-.26-.38-.6-.89-.93-1.3l.09.67c0,.05.01.11.01.16v.13s0,.3,0,.3c0,.03-.01.09-.01.14,0,.04-.02.1-.03.15,0,.02-.02.07-.03.12-.02.06-.04.12-.05.17-.01.03-.04.08-.06.13-.02.04-.05.09-.08.14l-.08.11c-.04.06-.09.11-.14.16l-.12.1s-.1.07-.16.1l-.14.07s-.1.03-.16.05c-.06.01-.11.02-.15.04-.04,0-.1.01-.16.01-.19,0-.29-.01-.43-.04l-.19-.06s-.1-.03-.16-.05l-1.43-.78-.2-.14.32-.67-.42.59-1.09-.76.26-.69-.35.64-.07-.04c.06.48.09,1.16-.54,1.79l-.17.17-.23.04c-.44.07-.87.1-1.3.1-1.51,0-2.63-.43-3.61-.82l.02.2c.01.35-.12.67-.33.86l-.07.05c-.36.27-.81.4-1.29.38.37.6.66,1.42.31,2.53l-.04.11c-.06.18-.13.34-.2.49-.02.05-.04.09-.06.14l-.09.14s-.05.1-.09.15l-.1.12s-.03.03-.05.06l-.07.07-.53-.51.46.57c-.09.08-.14.12-.19.16l-.92.52-.52.18s-.08.02-.14.04l-.09.02s-.1.02-.18.04h-.04c-.07.02-.13.03-.19.04-.11.01-.17.02-.23.03l-.4.02-.87-.1c-.06-.01-.12-.03-.19-.05-.12-.04-.2-.07-.28-.09l-.29-.14c-.07-.04-.12-.06-.17-.09l-.08-.05s-.09-.06-.14-.1c-.02-.02-.06-.04-.09-.07-.05-.04-.08-.07-.12-.1l-.25-.26s-.08-.09-.12-.13l-.06-.08s-.06-.08-.08-.13c-.05-.07-.07-.11-.09-.14-.03-.05-.08-.13-.12-.22-.15-.28-.16-.61-.02-.91.31-.64,1.19-.81,2.12-.99.02,0,.04,0,.05-.01-.43-.58-.85-1.46-.25-2.98.27-1.03,1.55-1.75,3.16-2.64,2.02-1.12,4.27-2.37,4.61-4.2-.35.07-.77.2-1.19.33-.86.26-1.84.56-2.7.56-.75,0-1.34-.23-1.76-.68-.31-.34-.51-.79-.59-1.35-2.57,1.82-5.01,2.6-7.22,2.3l-.13-.03c-1.1-.36-2.02-1.29-3.08-2.36-1.25-1.25-2.65-2.66-4.55-3.27v2.52h-.73c-1.32,0-2.59,0-3.5.18,1.51.17,2.74.76,3.44,2.76.6,1.92-1.29,3.06-3.48,4.38-1.51.92-3.23,1.95-4.49,3.4l-.44.5-.54-.39c-.55-.4-1.16-1.09-1.7-1.7-.27-.3-.62-.71-.81-.87h-1.43l1.05-1.21c.82-.94,1.27-1.88,1.3-2.72.04-1.04-.39-1.97-.58-2.32-.15-.27-.25-.46-.36-.63-.72.3-1.62.48-2.51.48-1.41,0-2.4-.43-2.71-1.18-.08-.22-.14-.5-.06-.84-.16.02-.34.06-.54.12l-.23.04c-2.27,0-4.84,0-6.59,1.41l-.58.46-.45-.59c-1.45-1.87-3.73-3.29-5.8-3.64l-.23-.04-.16-.16c-.06-.06-.14-.13-.21-.2-.55,1.26-1.54,1.83-3.08,1.73"/>
    </clipPath>
    <radialGradient id="radial-gradient" cx="163.89" cy="890.37" fx="163.89" fy="890.37" r="2.79" gradientTransform="translate(-2821.17 16607.9) scale(18.13 -18.13)" gradientUnits="userSpaceOnUse">
      <stop offset="0" stop-color="#f1e9c5"/>
      <stop offset=".87" stop-color="#b3a331"/>
      <stop offset=".97" stop-color="#ad9c21"/>
      <stop offset="1" stop-color="#ad9c21"/>
    </radialGradient>
    <clipPath id="clippath-13">
      <path class="cls-4" d="M153.09,502.44h.01s.08-.04.11-.06l-.13-.02s0,.05,0,.08"/>
    </clipPath>
    <radialGradient id="radial-gradient-2" cx="-17094.4" cy="-8946.45" fx="-17094.4" fy="-8946.45" r="2.79" gradientTransform="translate(493.33 324.36) scale(.02 -.02)" xlink:href="#radial-gradient"/>
  </defs>
  <path class="cls-3" d="M931.04,360.34c-.44,1.03-.95,2.04-1.31,3.1-15.1,44.15-29.62,88.49-43.36,133.08-.94,3.06-1.83,6.14-2.77,9.2-.26.84-.6,1.65-.96,2.63-5.93-1.47-11.7-1.43-17.69-.05-3.75-12.87-7.37-25.64-11.18-38.35-3.85-12.82-7.84-25.61-11.89-38.37-4.02-12.66-8.2-25.27-12.59-37.91-12.84,38.11-26.29,75.94-37.96,114.38-3.2-.3-6.12-.79-9.04-.79-2.93,0-5.86.48-9.02.77-.24-.77-.52-1.6-.75-2.45-6.26-22.98-12.44-45.99-18.78-68.95-7.03-25.44-15.8-50.31-25.32-74.91-.26-.68-.5-1.37-.89-2.47,10.12.98,19.99,1.6,30.03-.2,9.32,39.81,20.04,78.98,31.42,118.04,1.14-1.28,10.62-29.4,19.8-58.61,6.17-19.66,12.35-39.31,18.61-59.25,5.38,1.26,10.98,1.32,16.68-.15,10.95,39.86,24.54,78.65,36.58,118.04,4.35-12.94,8.14-25.99,11.98-39.02,3.85-13.08,7.68-26.17,11.4-39.29,3.71-13.1,7.28-26.25,10.96-39.52,1.12.18,2.25.31,3.35.54,4.29.9,8.5,0,12.73-.51v.99Z"/>
  <path class="cls-3" d="M143.54,668.73c-.88-.14-1.76-.36-2.64-.41-13.11-.73-25.87-3.29-38.35-7.28-2.42-.78-2.76-1.29-2.77-3.95,0-3.2-.06-6.41.07-9.61.08-1.83-.6-2.73-2.3-3.48-20.45-8.96-40.85-18.01-61.27-27.04-1.13-.5-2.26-.99-3.33-1.59-2.02-1.14-3.38-2.8-3.91-5.13-.18-.77-.63-1.47-.95-2.21,0-.66,0-1.32,0-1.97,1.22-.67.87-1.86.88-2.87.04-8.3.04-16.6.04-24.91,0-3.21.16-6.43-.1-9.61-.36-4.38,3.62-7.16,7.77-5.06,4.91,2.49,9.88,4.86,14.88,7.16,22.31,10.26,44.64,20.48,66.96,30.72,1.56.72,3.64,1.16,4.46,2.41.81,1.23.38,3.31.4,5.01.04,5.18.04,10.36.05,15.54,0,2.51.03,2.52,2.55,2.93,8.94,1.44,17.94,2.3,26.99,1.8,6.14-.34,12.25-1.26,18.36-1.94.38-.04.75-.29,1.27-.51v-22.95c2.19-1.03,4.26-2.01,6.34-2.97,23.14-10.61,46.29-21.21,69.42-31.84,3.58-1.65,7.09-3.46,10.66-5.12,1.47-.68,2.96-1.34,4.72-.71,1.63.58,2.68,1.61,3.08,3.22.28,1.11.48,2.27.49,3.41.03,9.7.02,19.39-.03,29.09-.02,3.2-.27,6.41-.24,9.61.03,3.57-1.59,5.92-4.78,7.32-4.59,2.01-9.18,4.01-13.76,6.05-16.67,7.39-33.32,14.82-50.01,22.16-1.7.75-2.32,1.73-2.25,3.54.12,3.2.08,6.41.03,9.62-.04,2.65-.31,3.02-2.89,3.86-8.93,2.88-18.01,5.1-27.34,6.23-4.23.51-8.51.72-12.76,1.09-.46.04-.91.27-1.36.42h-8.39ZM196.34,641.81c1.37-.52,2.28-.82,3.16-1.21,19.23-8.49,38.46-17,57.68-25.51,1.5-.66,2.98-1.38,4.47-2.07,1.92-.89,2.81-2.44,2.88-4.5.03-.74.06-1.48.06-2.22,0-12.17.01-24.33,0-36.5,0-.74,0-1.49-.16-2.21-.35-1.61-1.54-2.24-3.13-1.71-.7.23-1.39.51-2.06.83-4.3,2.06-8.56,4.19-12.88,6.18-21.86,10.06-43.74,20.08-65.61,30.11-1.03.47-2.03.99-3.1,1.51.26.4.34.64.51.79,5.28,4.7,10.54,9.42,15.87,14.06,1.62,1.41,2.39,3.01,2.33,5.15-.08,3.37-.02,6.74-.02,10.11,0,2.21,0,4.42,0,7.18ZM118.47,604.62c-.87-.47-1.34-.77-1.84-1-7.83-3.59-15.68-7.17-23.51-10.77-16.78-7.72-33.55-15.46-50.33-23.19-2.61-1.2-5.17-2.51-7.82-3.62-1.85-.77-3.05-.1-3.39,1.85-.24,1.36-.27,2.78-.27,4.17-.02,11.01.17,22.03-.1,33.04-.12,4.94,1.81,7.62,6.28,9.55,20.13,8.69,40.14,17.64,60.2,26.49.58.25,1.18.45,2.12.8,0-1.09,0-1.88,0-2.68,0-5.18.04-10.36-.01-15.53-.02-1.7.56-2.97,1.84-4.08,4.15-3.61,8.25-7.29,12.36-10.96,1.4-1.25,2.78-2.53,4.48-4.07ZM102.48,658.03c30.45,10.06,60.64,10.15,90.94.02v-33.34c-14.98,4.57-30.04,7.35-45.47,7.29-15.43-.06-30.51-2.64-45.47-7.44v33.47ZM175.2,606.45v20.15c5.83-1.49,11.41-2.92,17.52-4.48-5.78-5.56-11.48-10.39-17.52-15.67ZM103.62,621.67c3.48,1.71,14.67,4.48,17.06,4.32.45-3.14.32-17.41-.27-19.3-5.63,5.02-11.15,9.95-16.79,14.98Z"/>
  <path class="cls-3" d="M266.45,430.93c0-2.81,0-5.62,0-8.42,0-21.46-.05-42.92,0-64.38.06-21.46.23-42.92.35-64.37,0-.79-.07-1.59-.11-2.39H29.11c0,2.05,0,3.77,0,5.48.05,22.36.12,44.73.14,67.09.02,22.33.04,44.66.05,66.99,0,18.04.02,36.08.02,54.11,0,8-.04,16-.06,24-.02,6.88-.03,13.77,0,20.65.06,11.67,5.22,20.3,15.87,25.43,6.66,3.21,13.33,6.4,20,9.59,13.33,6.36,26.66,12.72,39.99,19.08,8.1,3.86,16.19,7.73,24.29,11.59,3.92,1.87,7.84,3.73,11.75,5.61,1.57.75,3.14,1.5,4.7,2.26,1.4.68,2.62.94,4.13.08,1.54-.88,3.16-1.61,4.79-2.34.78-.35,1.56-.7,2.33-1.06,11.48-5.43,22.96-10.87,34.43-16.3,10.72-5.08,21.44-10.16,32.16-15.24,9.5-4.51,18.98-9.06,28.46-13.61,3.23-1.55,6-3.72,8.3-6.47,4.19-4.99,6.08-10.72,6.07-17.27-.01-7.33-.03-14.66-.03-22-.03-26.04-.03-52.07-.03-78.11ZM109.09,303.94c1.33.51,2.62.72,3.88.72.13,0,.26,0,.38,0,.09,0,.18,0,.27,0,.06,0,.12,0,.19-.01.1,0,.21-.02.31-.03.12-.01.24-.02.36-.04.11-.01.21-.03.32-.04.07,0,.14-.02.21-.03.14-.02.27-.04.41-.07.19-.04.39-.08.59-.12.27-.06.54-.13.81-.21.18-.05.36-.1.54-.16.27-.08.54-.17.8-.26.29-.1.58-.2.87-.31.14-.05.29-.11.43-.17.01,0,.02,0,.03-.01.13-.05.27-.1.4-.16.58-.23,1.15-.47,1.73-.71.55-.23,1.1-.46,1.65-.68.33-.14.65-.27.98-.4.72-.29,1.44-.57,2.17-.83.34-.13.69-.24,1.03-.36.18-.06.36-.12.54-.18.14-.05.29-.1.43-.14.07-.02.14-.04.21-.07.07-.02.14-.05.22-.07.15-.04.29-.09.43-.13.14-.04.29-.08.43-.12.15-.04.29-.08.44-.12,5.09-1.31,9.93-.11,14.52,2.24.58.3,1.16.61,1.73.92.57.31,1.15.63,1.72.94.45-.25.9-.52,1.34-.77.15-.08.3-.17.44-.26.2-.12.39-.23.59-.34.29-.17.59-.34.89-.5.12-.07.25-.13.37-.2.37-.19.75-.38,1.13-.55,5.87-2.55,11.77-2.59,17.69-.07,2.94,1.25,5.95,2.34,8.92,3.51.13.05.26.1.38.14.13.04.26.09.38.13.13.04.26.07.38.11.06.02.13.03.19.05.1.02.19.04.29.06.05,0,.1.02.15.03.11.02.22.04.32.05,0,0,0,0,.01,0,.08,0,.17.02.25.03.04,0,.08,0,.11,0,.09,0,.19.01.28.02.11,0,.21,0,.32,0,.22,0,.44,0,.67-.03.22-.02.44-.05.67-.09.11-.02.22-.04.34-.07.22-.05.45-.11.68-.19.11-.03.22-.07.34-.12.07-.02.14-.05.21-.07.07-.02.14-.04.21-.05.09-.02.19-.04.29-.05.1-.01.2-.02.3-.03.11,0,.21-.02.32-.02.12,0,.24-.01.36-.02.11,0,.22-.01.34-.02.12,0,.23-.02.35-.03.02.53.04.95.03,1.27,0,.1,0,.19-.01.27,0,.05,0,.09-.01.13,0,.03,0,.06-.01.08,0,.04-.01.08-.02.12,0,.04-.02.07-.03.11-.01.04-.03.08-.05.11-.01.02-.03.05-.04.07-.02.03-.05.06-.08.08-.02.02-.04.03-.06.05-.02.01-.04.03-.07.04-.02.01-.05.03-.08.04-.04.02-.08.03-.13.05-.05.02-.1.03-.15.04-.08.02-.17.04-.26.05-.03,0-.06,0-.1.02-.04,0-.09.01-.13.02-.04,0-.09.01-.14.02-.05,0-.1.01-.15.02-.05,0-.11.01-.16.02-3.74.49-7.37.22-10.84-1.38-.19-.09-.39-.18-.59-.26-.2-.09-.39-.17-.59-.25-.2-.08-.4-.17-.6-.25-1-.41-2-.8-2.98-1.25-.97-.45-1.94-.82-2.9-1.12-.26-.08-.51-.16-.77-.22-.09-.03-.19-.05-.28-.07-.28-.07-.56-.14-.83-.19-1.42-.3-2.83-.43-4.22-.4-.11,0-.22,0-.33,0-.17,0-.33.02-.49.03-.1,0-.19.01-.29.02-.1,0-.2.02-.3.03-.09,0-.19.02-.28.03-.22.02-.45.05-.68.09-.25.04-.49.08-.74.13-.12.02-.23.05-.35.07-.17.03-.34.07-.51.11-.08.02-.16.04-.24.06-.46.11-.91.25-1.37.4-.11.03-.21.07-.32.11-.14.05-.27.1-.41.15-.12.04-.24.09-.36.14-.18.07-.37.15-.55.22-.18.08-.36.16-.55.24-.24.11-.48.22-.72.34-.24.12-.48.24-.72.37-.12.06-.24.13-.36.19-.6.33-1.19.69-1.79,1.08-.68.45-1.35.91-2.14,1.43-.66-.45-1.3-.93-1.95-1.37-.22-.15-.44-.29-.66-.43-.11-.07-.22-.14-.33-.2-.04-.02-.08-.05-.13-.07-.18-.11-.36-.21-.55-.32-.11-.06-.22-.13-.34-.19-.22-.12-.45-.24-.67-.36-.11-.06-.23-.11-.34-.17-.22-.11-.45-.22-.68-.32h0c-.22-.11-.45-.2-.68-.3-.23-.1-.46-.19-.68-.27-.46-.17-.92-.33-1.38-.47-.23-.07-.46-.14-.69-.2-.12-.03-.23-.06-.35-.09-.23-.06-.47-.11-.7-.16-.14-.03-.29-.06-.43-.08-.18-.03-.37-.06-.55-.09-.14-.02-.29-.04-.43-.06-.13-.02-.26-.03-.39-.04-.08,0-.16-.02-.23-.02-.15-.01-.3-.02-.45-.03h0c-.15,0-.3-.02-.44-.02-.09,0-.17,0-.26,0-.25,0-.51,0-.77,0-.27,0-.54.02-.8.04-.37.02-.73.06-1.1.11-.1.01-.19.02-.29.04-.19.03-.39.06-.58.1-.04,0-.09.01-.13.02-.11.02-.23.04-.34.07-.14.03-.27.06-.41.09-.1.02-.2.05-.31.08-.07.02-.15.04-.22.06-.1.03-.2.05-.3.08-.14.04-.28.08-.41.12-.42.13-.83.27-1.25.44-.52.2-1.03.4-1.55.6-.52.2-1.03.41-1.54.62s-1.02.42-1.53.64c-.51.22-1.02.44-1.52.66-.7.31-1.41.59-2.11.82-.36.12-.71.23-1.07.33-.21.06-.42.12-.64.17-.12.03-.23.06-.35.08-.02,0-.04,0-.06.01-.02,0-.04.01-.07.01-.17.04-.34.08-.51.11-.32.06-.64.12-.95.16-.16.02-.32.04-.48.06-.16.02-.32.04-.48.05-.12.01-.24.02-.36.03-.02,0-.04,0-.06,0-.09,0-.18.01-.27.02-.01,0-.03,0-.04,0-.1,0-.2.01-.3.01-.05,0-.11,0-.16,0-.09,0-.18,0-.27,0-.21,0-.42,0-.63,0-.11,0-.21,0-.32,0-.11,0-.21,0-.32,0-.06,0-.13,0-.19,0-.07,0-.13,0-.2-.01-.14,0-.27-.01-.41-.02-.17-.01-.35-.03-.52-.05-.35-.04-.71-.08-1.07-.14-.18-.03-.36-.06-.54-.09s-.36-.07-.54-.1c-.02-.37-.05-.75-.08-1.12-.02-.28-.04-.56-.06-.83,0-.09,0-.18-.02-.27.31-.12.49-.26.59-.22ZM110.89,307.68c3.01.56,5.9.01,8.7-1.01,2.31-.84,4.56-1.86,6.83-2.8,3.88-1.6,7.89-2.52,12-1.2.15.05.3.1.45.15.17.06.33.12.5.18.37.14.73.28,1.09.44.13.05.26.11.39.17.17.08.35.15.52.23.15.07.3.14.45.21.12.06.25.12.37.18.2.09.4.19.6.29.27.13.53.26.8.39.58.29,1.17.58,1.76.87.11.05.22.11.32.17.11.06.21.12.32.19.51.32,1.01.71,1.57,1.11.06.05.13.09.19.14.07.05.13.09.2.14.71-.47,1.46-.94,2.18-1.45.19-.14.39-.27.58-.4.14-.09.28-.18.42-.27.3-.19.6-.37.91-.54.12-.06.23-.13.35-.19.15-.08.29-.16.44-.23.1-.05.21-.11.31-.16.27-.13.54-.26.82-.38.11-.05.22-.1.33-.14.01,0,.03-.01.04-.02.07-.03.14-.06.2-.08.04-.02.08-.03.12-.05.12-.05.24-.1.37-.15.38-.15.77-.28,1.15-.41.39-.13.78-.25,1.18-.35.15-.04.31-.08.46-.12,0,0,.02,0,.03,0,.13-.03.27-.07.4-.1.15-.04.3-.07.45-.1.15-.03.3-.07.45-.1.43-.09.87-.15,1.3-.19.93-.09,1.84-.08,2.75.01.03,0,.06,0,.09,0,.15.02.31.03.46.06.07,0,.13.02.2.03.1.01.2.03.3.05.12.02.24.04.36.06.43.08.86.18,1.29.29.14.03.27.07.41.11.27.08.54.16.81.25.16.05.32.11.48.16.15.05.3.11.45.16.02,0,.03.01.05.02.07.02.15.05.22.08.15.05.3.11.44.17.44.17.89.35,1.33.54.22.09.44.19.66.28.19.08.38.16.57.25.35.15.7.3,1.05.45.22.1.45.19.67.29.47.2.95.4,1.43.6,0,0,0,0,.02,0,.29.12.58.23.88.35,2.65,1.03,5.37,1.68,8.19,1.56.14,0,.27-.01.41-.02h0c.17-.01.35-.03.52-.04.18-.01.35-.04.53-.06.12-.01.23-.03.35-.05.07,0,.14-.02.21-.03.05,0,.1-.02.15-.03.1-.02.2-.03.3-.04.47-.03.99.02,1.77.02v2.63c0,8.79,0,17.58,0,26.38,0,.29,0,.57,0,.86,0,.12,0,.25,0,.37-.01.38-.03.69-.08.94,0,.07-.02.14-.04.2-.01.06-.03.12-.05.18-.02.06-.04.12-.07.17-.01.02-.03.05-.04.07-.06.08-.13.16-.21.21-.01.01-.03.02-.04.03-.02.01-.04.02-.06.04-.03.02-.07.03-.1.05-.04.02-.08.03-.13.05-.18.06-.41.1-.69.14-.03,0-.07,0-.1.01-.11.01-.23.03-.36.04-.35.03-.71.06-1.06.08-.16,0-.31.02-.46.02-.04,0-.07,0-.11,0-.16,0-.32,0-.48.01-.23,0-.47,0-.7,0-.35,0-.7-.02-1.05-.04-.01,0-.03,0-.04,0-.3-.02-.61-.04-.91-.07-.14-.01-.28-.03-.41-.05-.49-.06-.97-.13-1.45-.22-.06-.01-.12-.02-.19-.03-.04,0-.07-.01-.11-.02-.13-.02-.26-.05-.39-.08-.06-.01-.11-.02-.17-.04-.15-.03-.3-.07-.44-.11-.25-.06-.5-.12-.74-.19-.19-.05-.37-.1-.55-.16-.4-.12-.8-.25-1.2-.4-.07-.03-.15-.05-.22-.08-.13-.04-.25-.09-.38-.14-.17-.06-.34-.13-.51-.2-.05-.01-.09-.03-.14-.06-.18-.07-.37-.15-.55-.23-2.4-1.06-4.86-1.97-7.31-2.91-.4-.16-.8-.29-1.21-.39-.22-.06-.45-.12-.67-.16-.26-.06-.52-.11-.78-.14-.12-.02-.23-.03-.35-.05-.13-.01-.25-.03-.38-.04-.13-.01-.25-.02-.38-.03-.11,0-.22-.01-.33-.01-.02,0-.05,0-.07,0-.11,0-.23,0-.34,0-.39,0-.78.02-1.17.05-.04,0-.08,0-.12,0-.03,0-.06,0-.09,0-.11,0-.22.02-.34.04-.14.02-.28.04-.42.06-.28.04-.55.09-.82.16-.14.03-.27.06-.4.09-.06.01-.12.03-.18.04-.35.09-.7.19-1.04.31-.12.04-.23.08-.35.12-.12.04-.23.08-.35.13-.12.04-.23.09-.35.13-.38.15-.75.31-1.12.48-.61.28-1.21.58-1.8.91-.3.16-.59.32-.88.49-.15.08-.29.17-.44.25-.44.25-.87.51-1.31.77-.58.35-1.16.7-1.74,1.05-.29.18-.58.35-.88.51-.11-.07-.23-.14-.34-.21-.12-.07-.23-.14-.35-.21-.12-.07-.23-.14-.34-.21-.23-.14-.46-.29-.69-.43-.12-.07-.23-.15-.35-.22-.23-.15-.46-.29-.7-.43-.04-.02-.08-.05-.11-.07-.15-.09-.31-.19-.46-.28-.16-.1-.33-.19-.49-.28-.12-.07-.24-.14-.36-.2-.12-.07-.24-.13-.36-.19-.22-.12-.44-.22-.67-.33-.09-.04-.18-.08-.26-.12-.01,0-.02-.01-.04-.02-.05-.02-.09-.04-.14-.07-.29-.12-.58-.24-.88-.36-.23-.09-.47-.18-.7-.27-.21-.08-.42-.16-.63-.23-.3-.11-.6-.21-.9-.31-.25-.08-.51-.16-.76-.24-.2-.06-.4-.12-.6-.18-.3-.09-.61-.17-.92-.25-.61-.16-1.23-.3-1.85-.43-2.49-.52-4.86.56-7.17,1.37-.3.1-.6.21-.9.33-.26.1-.52.19-.78.3-.19.07-.37.15-.55.22-.19.07-.37.15-.55.23-.18.07-.37.15-.55.23-.37.16-.73.31-1.1.47-.58.25-1.17.51-1.75.76-.29.12-.58.25-.88.37-.05.02-.1.04-.15.06-.03.01-.05.02-.08.03-.17.07-.33.13-.5.2-.12.04-.24.09-.36.13-.12.04-.24.08-.37.12-.07.02-.13.04-.2.06-.54.17-1.09.31-1.64.43-.12.02-.23.05-.35.07-.04,0-.08.02-.12.02-.09.02-.19.03-.28.05-.25.04-.5.08-.75.11-.12.02-.25.03-.37.04-.13.01-.25.03-.38.04-.13.01-.25.02-.38.03-.32.02-.65.04-.98.05-.03,0-.07,0-.1,0h-.03c-.22,0-.45.01-.67.01-.14,0-.29,0-.43,0-.18,0-.36,0-.54,0-.29,0-.59-.02-.89-.03-.17,0-.35-.02-.52-.03-.09,0-.19-.01-.28-.02-.11,0-.22-.01-.33-.02-.19-.01-.37-.03-.56-.04-.37-.03-.75-.07-1.13-.11-.09-4.6-.11-9.17-.11-13.74,0-1.51,0-3.03,0-4.54,0-2.26,0-4.53,0-6.79,0-.61,0-1.22,0-1.83,0-.7,0-1.4,0-2.11,0-1.04-.01-2.09-.03-3.14,1.01,0,1.82-.12,2.58.02ZM99.47,317.04c.09-.04.17-.08.25-.12.07-.03.14-.07.2-.11.03-.01.06-.03.09-.05.19-.11.36-.22.51-.35.04-.03.09-.07.13-.11.04-.03.08-.07.12-.11.04-.04.07-.08.11-.12.03-.03.06-.06.08-.1.04-.05.08-.1.12-.16.03-.04.06-.09.08-.13.02-.03.04-.06.05-.1.02-.03.03-.06.05-.09.01-.03.03-.06.04-.09.02-.04.03-.08.05-.12,0-.02.01-.03.02-.05,0-.02.01-.04.02-.06.01-.03.02-.07.03-.11.01-.04.02-.08.03-.12.01-.04.02-.08.03-.13,0-.04.01-.08.02-.12,0,0,0-.02,0-.03.01-.05.02-.11.02-.16,0,0,0,0,0-.01,0-.06.01-.13.02-.19.01-.22.01-.45,0-.7-.1-1.53-.07-3.07-.05-4.63,0-.67.02-1.34.02-2.02h0s4.48,0,4.48,0v35.11c2.66.01,5.32.02,7.98.03,1.33,0,2.66,0,3.99.01,1.33,0,2.66,0,3.98,0,1.77,0,3.54,0,5.31.01,3.54,0,7.07,0,10.61.01,1.77,0,3.53,0,5.3,0,4.47,0,8.93,0,13.4,0,2.25,0,4.51,0,6.77,0h1.2c5.08,0,10.17,0,15.26-.01h.17c3.43,0,6.87,0,10.31-.01h0v-35.04h4.47v8.88c.78.43,1.53.85,2.29,1.27.16.09.32.18.48.27.16.09.32.18.48.27.32.18.65.36.98.54.27.15.54.3.81.45.41.23.83.46,1.27.7-1.28.72-2.16,1.23-3.06,1.71-.94.5-1.89.98-3.17,1.63,0,2.11-.07,4.39.05,6.67.03.49.66,1.08,1.16,1.4,1.45.91,2.97,1.7,4.88,2.78-.94.57-1.83,1.11-2.7,1.64-.62.38-1.24.75-1.86,1.13-.5.3-1,.6-1.51.92v8.55h-93.33c0-1.47-.11-2.88-.02-4.26,0,0,0-.01,0-.02,0-.06,0-.11.01-.17,0-.06,0-.11.01-.17,0,0,0-.02,0-.03,0-.06,0-.13.02-.19,0-.01,0-.02,0-.04,0-.03,0-.05,0-.08.06-.55.08-1.06.04-1.53-.04-.5-.14-.95-.32-1.37-.08-.18-.18-.36-.29-.53-.06-.09-.12-.17-.19-.26-.04-.05-.08-.1-.13-.15-.03-.04-.07-.07-.1-.11-.05-.05-.11-.11-.17-.16-.05-.04-.1-.09-.15-.13-.13-.11-.27-.2-.43-.3-.07-.04-.15-.09-.22-.13-.16-.09-.33-.17-.51-.25-.09-.04-.19-.08-.28-.12-.12-.04-.23-.09-.35-.15-.05-.02-.1-.05-.15-.07-.29-.14-.58-.31-.87-.5-.1-.06-.21-.13-.31-.2-.08-.05-.16-.11-.24-.17-.15-.1-.29-.2-.44-.31t0,0c-.15-.1-.31-.21-.47-.32-.24-.17-.48-.33-.75-.49.14-.08.28-.16.42-.24.04-.02.07-.04.11-.06.24-.14.48-.28.71-.41t0,0c.27-.16.53-.31.79-.46.39-.23.78-.45,1.16-.68.19-.11.38-.22.57-.33.19-.11.38-.22.58-.34.25-.15.51-.3.77-.45.39-.22.78-.45,1.19-.69,0,0,0,0,0,0,0-.56,0-1.13,0-1.7,0-1.16-.02-2.36.02-3.56.04-1.14-.43-1.8-1.43-2.32-.2-.1-.39-.21-.59-.32-.19-.11-.39-.22-.59-.33-.16-.09-.32-.18-.48-.28-.34-.2-.68-.4-1.03-.61-.31-.19-.63-.38-.96-.58-.44-.27-.91-.55-1.4-.84,1.72-.99,2.99-1.87,4.37-2.47ZM261.41,429.01v1.92c-.01,25.59-.05,51.17-.06,76.76v1.35c0,7.28.03,14.55.04,21.83,0,5.48-1.74,10.31-5.32,14.48-2.08,2.42-4.66,4.15-7.5,5.5-17.51,8.32-35.03,16.62-52.54,24.94-1.5.72-3.01,1.43-4.51,2.15-13.92,6.62-27.84,13.25-41.74,19.93-1.33.64-2.3.62-3.61-.02-13.17-6.37-26.38-12.64-39.57-18.95-.5-.24-1-.48-1.5-.72-19.21-9.19-38.44-18.34-57.61-27.61-8.46-4.09-12.9-10.91-12.91-20.43,0-7.03-.02-14.06-.03-21.09-.03-23.55-.06-47.11-.06-70.66,0-2.48,0-4.96,0-7.45,0-23.66.04-47.33.06-70.99,0-.8.08-1.61.12-2.54,23.48-.21,46.96-.32,70.43-.37,28.8-.06,57.6-.03,86.43.06,23.27.07,46.57.17,69.89.27v2.83c0,22.94,0,45.88,0,68.82Z"/>
  <path class="cls-3" d="M485.51,357.83c1.8.19,3.1.45,4.4.45,1.8,0,3.61-.16,5.4-.36,1.14-.13,1.95.05,2.8.98,15.58,17.05,31.17,34.09,46.84,51.07,10.59,11.48,21.28,22.87,31.95,34.27,6.63,7.08,13.3,14.12,19.93,21.19.44.47.71,1.09,1.4,1.44.22-35.97.57-71.72-1.3-107.75,5.72,1.35,11.09,1.23,16.76,0-1.41,25.22-2.87,50.13-3.06,75.09-.18,24.98-.04,49.95-.04,74.94h-10.49c-32.18-37.83-66.3-74.53-100.79-111.01-.99,2.13-1.57,27.64-1.23,54.69.23,18.24.39,36.48,1.68,54.91-3.06-.28-5.95-.75-8.84-.76-2.86,0-5.72.45-8.78.73,3.95-49.76,5.33-99.61,3.38-149.88Z"/>
  <path class="cls-3" d="M721.03,368.28c-6.93,4.25-10.08,10.73-12.86,17.89-.41-.65-.68-.98-.86-1.36-5.28-11.11-14.07-17.02-26.34-17.74-5.9-.35-11.68.21-17.11,2.72-6.88,3.19-12.04,8.05-14.01,15.58-2.15,8.19.26,15.09,6.59,20.62,4.59,4.01,10.07,6.52,15.72,8.56,7.72,2.79,15.54,5.31,23.31,7.96,7.17,2.45,14.2,5.21,20.6,9.35,3.68,2.38,7.03,5.12,9.64,8.71,3.82,5.23,5.59,11.12,5.72,17.53.13,6.36-.6,12.63-2.44,18.74-3.52,11.72-10.89,20.26-21.58,26.05-7.32,3.96-15.19,6.26-23.38,7.34-5.45.72-10.95,1.19-16.44,1.38-10.41.36-20.41-1.83-30.11-5.5-6.09-2.3-11.95-5.07-17.42-8.61-.8-.52-1.55-1.12-2.53-1.83,7.1-4.97,11.78-11.41,14.26-19.85.54.98.92,1.59,1.22,2.23,5.3,11.01,14.28,17.1,26.04,19.38,8.58,1.66,17.04,1.19,25.09-2.44,10.17-4.58,17.24-11.96,19.55-23.16,1.35-6.51-.25-12.39-4.76-17.38-2.4-2.66-5.31-4.64-8.44-6.33-6.76-3.64-14.08-5.87-21.3-8.35-6.44-2.21-12.9-4.41-19.18-7.04-3.83-1.61-7.48-3.79-10.94-6.11-8.17-5.45-12.99-13.12-14.16-22.93-1.4-11.77,1.24-22.39,9.37-31.3,4.91-5.39,11.01-9.06,17.8-11.6,7.77-2.91,15.82-4.28,24.1-4.51,9.95-.28,19.69.74,29.11,4.1,4.66,1.66,9.15,3.66,13.34,6.3.68.43,1.33.89,2.39,1.61Z"/>
  <path class="cls-3" d="M454.65,357.51c6.24,1.02,12.26,1.65,18.48-.3-.23,3.35-.46,6.36-.64,9.38-.32,5.5-.66,10.99-.89,16.5-.48,11.42-.99,22.83-1.32,34.26-.25,8.79-.24,17.59-.33,26.39-.11,10.16-1.09,20.19-4.28,29.9-4.08,12.41-11.31,22.36-22.78,28.97-7.68,4.43-16.06,6.65-24.79,7.63-9.78,1.1-19.55.75-29.24-.9-10.37-1.77-19.98-5.34-28.07-12.34-6.59-5.7-10.89-12.87-13.54-21.1-2.47-7.66-3.4-15.56-3.42-23.57-.04-16.12.16-32.24-.11-48.35-.16-9.44-.99-18.87-1.65-28.3-.38-5.41-1.02-10.8-1.53-16.19-.05-.56,0-1.13,0-1.96,10.16.91,20.2,1.65,30.4-.2,0,1.22.08,2.18-.01,3.13-1.64,17.94-2.23,35.93-2.46,53.94-.06,4.84-.3,9.69-.29,14.53.03,9.29.31,18.58,1.4,27.82.8,6.8,2.16,13.46,4.89,19.78,4.32,9.99,11.67,16.59,22.18,19.44,9.75,2.64,19.62,3.08,29.5.63,9.75-2.42,16.81-8.27,21.49-17.11,3.27-6.18,5.08-12.8,6.24-19.64,1.61-9.43,2.04-18.96,2.08-28.49.06-14.88.03-29.77-.2-44.65-.14-9.04-.71-18.07-1.08-27.1-.02-.56,0-1.13,0-2.07Z"/>
  <path class="cls-3" d="M584.37,531.22c1.91,0,3.54,0,5.17,0,4.42,0,8.84-.06,13.26,0,1.8.03,3.62.19,5.38.57,6.42,1.39,10.92,6.19,11.86,12.92.42,2.98.54,6.08.23,9.07-1.02,10-7.99,16.55-18.05,17.19-2.29.15-4.59.06-6.89.06-3.52,0-7.04,0-10.82,0,.28-13.16.6-26.41-.15-39.83ZM592.1,536.61c-.4,9.99-.59,19.85.02,29.75,3.76.53,7.17.48,10.56-.28,3.84-.86,6.79-2.93,8.31-6.63,2.34-5.69,2.52-11.48.22-17.23-1.33-3.33-3.97-5.15-7.43-5.75-3.74-.64-7.5-.67-11.67.13Z"/>
  <path class="cls-3" d="M680.93,556.98c-.16-8.57-.32-17.15-.49-25.85h6.15c-1.12,13.51-.98,27.02-.73,40.48-1.89.93-2.94.06-3.98-1.12-4.92-5.62-9.86-11.24-14.83-16.82-2.72-3.06-5.52-6.06-8.48-9.3-.75,1.97-.29,3.74-.37,5.45-.09,1.8-.03,3.61-.02,5.42,0,1.73,0,3.45.04,5.18.04,1.81.17,3.61.21,5.42.04,1.78,0,3.57,0,5.35h-5.9c.3-13.47.6-26.97.9-40.48,1.89-.73,3.09.22,4.26,1.52,7.12,7.95,14.29,15.88,21.42,23.82.37.42.6.96.89,1.45.31-.17.61-.34.92-.52Z"/>
  <path class="cls-3" d="M720.16,571v-39.7h21.25v5.58c-4.54.31-9.07-.72-13.88-.4v11.15c4.18.58,8.48-.64,12.77-.28v5.6c-2.04.54-4.2-.11-6.36-.11-2.11,0-4.23,0-6.51,0v13.18c4.87.45,9.63-.42,14.39-.57v5.54h-21.66Z"/>
  <path class="cls-3" d="M493.2,533.78c-.74,2.25-1.39,4.25-2.04,6.23-1.44.57-2.47.44-2.99-1.14-.18-.53-.52-1.03-.85-1.49-1.19-1.66-2.8-2.62-4.85-2.28-2.07.34-3.64,1.56-4.3,3.62-.67,2.1-.51,4.18,1.3,5.63,1.33,1.06,2.9,1.83,4.43,2.61,1.31.67,2.74,1.12,4.06,1.76,5.95,2.89,7.27,7.14,6.09,13.01-.97,4.83-3.99,8.04-8.72,9.44-4.59,1.35-9.1,1.1-13.31-1.4-1.98-1.18-2.09-1.54-1.53-3.78.34-1.35.61-2.71.95-4.26.79-.04,1.57-.08,2.42-.13.32.56.59,1.05.88,1.53.96,1.6,2.32,2.77,4.05,3.45,2.31.91,4.53.76,6.48-.87,2.1-1.76,2.66-4.11,2.15-6.68-.33-1.64-1.61-2.66-3.01-3.41-1.73-.92-3.61-1.59-5.31-2.56-1.9-1.09-3.95-2.14-5.45-3.68-3.21-3.3-3.2-7.48-1.93-11.54,1.29-4.12,4.54-6.44,8.69-7.12,3.66-.61,7.4-.6,10.73,1.54.74.47,1.41,1.04,2.06,1.53Z"/>
  <path class="cls-3" d="M787.07,548.17c2.94-5.66,5.89-11.32,8.73-16.78,2.43-.17,4.76-.34,7.45-.53-.52.89-.97,1.69-1.44,2.47-3.58,5.9-7.12,11.82-10.76,17.67-1.45,2.33-2,4.77-1.83,7.49.2,3.36.21,6.73.3,10.1.02.8,0,1.59,0,2.52h-7.46c-.03-.54-.12-1.16-.1-1.78.07-3.94.12-7.89.25-11.83.06-1.69-.31-3.19-1.19-4.67-4.02-6.78-7.95-13.62-11.91-20.44-.2-.34-.37-.69-.67-1.25h8.93c2.98,5.59,6.01,11.29,9.05,16.99.22,0,.44.01.67.02Z"/>
  <path class="cls-3" d="M542.1,571.18h-7.7c0-.76-.02-1.54,0-2.32.12-3.86.23-7.72.38-11.58.06-1.53-.32-2.87-1.11-4.2-4.09-6.94-8.11-13.92-12.16-20.88-.16-.27-.28-.56-.51-1.03h8.88c2.97,5.6,6,11.3,9.21,17.36,3.63-5.75,6.31-11.61,9.1-17.19,2.59-.15,4.99-.28,7.55-.43-.37.64-.69,1.2-1.02,1.75-3.95,6.54-7.9,13.08-11.87,19.61-.84,1.38-1.22,2.81-1.15,4.44.18,4.02.26,8.05.37,12.08.02.72,0,1.44,0,2.39Z"/>
  <path class="cls-1" d="M175.2,606.45c6.04,5.28,11.74,10.11,17.52,15.67-6.11,1.56-11.69,2.99-17.52,4.48v-20.15Z"/>
  <path class="cls-13" d="M103.62,621.67c5.64-5.03,11.16-9.96,16.79-14.98.59,1.88.72,16.15.27,19.3-2.38.17-13.57-2.61-17.06-4.32Z"/>
  <path class="cls-7" d="M185.82,340c-.35.03-.71.06-1.06.08.35-.02.7-.05,1.06-.08ZM183.01,340.12c-.35,0-.7-.02-1.05-.04.35.02.7.04,1.05.04ZM176.56,339.11c-.4-.12-.8-.25-1.2-.4.4.14.8.28,1.2.4ZM141.44,336.23c.29.12.58.24.88.36.05.02.1.04.15.06-.05-.02-.09-.04-.14-.07-.29-.12-.58-.24-.88-.36ZM120.69,338.66s-.05.02-.08.03c.08-.03.15-.06.23-.09.29-.12.58-.25.88-.38-.29.12-.58.25-.88.37-.05.02-.1.04-.15.06ZM120.62,338.69c-.17.07-.33.13-.5.2.16-.06.33-.13.5-.2ZM112.9,340.07h.06c.06,0,.12,0,.17,0-.14,0-.29,0-.43,0,.07,0,.13,0,.2,0ZM113.94,340.05s-.07,0-.1,0h-.03c-.22,0-.45.01-.67.01.6,0,1.19-.02,1.78-.07-.32.02-.65.04-.98.05ZM112.48,340.07c.08,0,.15,0,.23,0-.18,0-.36,0-.54,0,.1,0,.21,0,.31,0ZM108.35,326.07c0-1.51,0-3.03,0-4.54,0-2.26,0-4.53,0-6.79,0,3.78,0,7.56,0,11.34Z"/>
  <path class="cls-7" d="M187.81,310.26c0,8.79,0,17.58,0,26.38,0,.29,0,.57,0,.86,0,.13,0,.25,0,.37-.02.38-.03.69-.07.94-.01.07-.02.14-.04.2s-.03.12-.05.18c-.02.06-.04.12-.07.17-.01.02-.03.05-.04.07-.06.08-.13.16-.21.21-.01.01-.03.02-.04.03-.02.01-.04.02-.06.04-.03.02-.07.03-.1.05-.04.02-.08.03-.13.05-.18.06-.41.1-.69.14-.03,0-.07,0-.1.01-.11.01-.23.03-.36.04-.35.03-.71.06-1.06.08-.16,0-.31.02-.46.02-.04,0-.07,0-.11,0-.16,0-.32,0-.48.01-.23,0-.46,0-.7,0-.35,0-.7-.02-1.05-.04-.01,0-.03,0-.04,0-.3-.02-.61-.04-.91-.07-.14-.01-.28-.03-.41-.05-.49-.06-.97-.13-1.45-.22-.06-.01-.12-.02-.19-.03-.04,0-.07-.01-.11-.02-.13-.02-.26-.05-.39-.08-.06-.01-.11-.02-.17-.04-.15-.03-.3-.07-.44-.11-.25-.06-.5-.12-.74-.19-.18-.05-.37-.1-.55-.16-.4-.12-.8-.25-1.2-.4-.07-.03-.15-.05-.22-.08-.13-.04-.25-.09-.38-.14-.17-.06-.34-.13-.51-.2-.05-.01-.09-.03-.14-.06-.18-.07-.37-.15-.55-.23-2.4-1.06-4.86-1.97-7.31-2.91-.4-.16-.8-.29-1.21-.39-.22-.06-.45-.12-.67-.16-.26-.06-.52-.11-.78-.14-.12-.02-.23-.03-.35-.05-.13-.01-.25-.03-.38-.04-.13-.01-.25-.02-.38-.03-.11,0-.22-.01-.33-.01-.02,0-.05,0-.07,0-.11,0-.23,0-.34,0-.39,0-.78.02-1.17.05-.04,0-.08,0-.12,0-.03,0-.06,0-.09,0-.11,0-.22.02-.34.04-.14.02-.28.04-.42.06-.28.04-.55.09-.82.16-.14.03-.27.06-.4.09-.06.01-.12.03-.18.04-.35.09-.7.19-1.04.31-.12.04-.23.07-.35.12-.12.04-.23.08-.35.13-.12.04-.23.08-.35.13-.38.15-.75.31-1.12.48-.61.28-1.21.58-1.8.91-.3.16-.59.32-.88.49-.15.08-.29.17-.44.25-.44.25-.87.51-1.31.77-.58.35-1.16.7-1.74,1.05-.29.17-.58.35-.88.51-.11-.07-.23-.14-.34-.21-.12-.07-.23-.14-.35-.21-.12-.07-.23-.14-.34-.21-.23-.14-.46-.29-.69-.43-.12-.07-.23-.15-.35-.22-.23-.15-.46-.29-.7-.43-.04-.02-.08-.05-.11-.07-.15-.09-.31-.19-.46-.28-.16-.1-.32-.19-.49-.28-.12-.07-.24-.14-.36-.2-.12-.07-.24-.13-.36-.19-.22-.12-.44-.22-.67-.33-.09-.04-.18-.08-.26-.12-.01,0-.02-.01-.04-.02-.05-.02-.09-.04-.14-.07-.29-.12-.58-.24-.88-.36-.23-.09-.47-.18-.7-.27-.21-.08-.42-.16-.63-.23-.3-.11-.6-.21-.9-.31-.25-.08-.51-.16-.76-.24-.2-.06-.4-.12-.6-.18-.3-.09-.61-.17-.92-.25-.61-.16-1.23-.3-1.85-.43-2.49-.52-4.86.56-7.17,1.37-.3.1-.6.21-.9.33-.26.1-.52.19-.78.3-.19.07-.37.15-.55.22-.19.07-.37.15-.55.23-.18.07-.37.15-.55.23-.37.15-.73.31-1.1.47-.58.25-1.17.51-1.75.76-.29.12-.58.25-.88.37-.05.02-.1.04-.15.06-.19.08-.38.16-.57.23-.12.04-.24.09-.36.13-.12.04-.24.08-.37.12-.07.02-.13.04-.2.06-.54.17-1.09.31-1.64.43-.12.02-.23.05-.35.07-.04,0-.08.02-.12.02-.09.02-.19.03-.28.05-.25.04-.5.08-.75.11-.12.02-.25.03-.37.04-.13.01-.25.03-.38.04-.13.01-.25.02-.38.03-.32.02-.65.04-.98.05-.03,0-.07,0-.1,0h-.03c-.28,0-.56.01-.85.01h-.06c-.07,0-.13,0-.2,0-.08,0-.15,0-.23,0-.1,0-.21,0-.31,0-.29,0-.59-.02-.89-.03-.17,0-.35-.02-.52-.03-.09,0-.19-.01-.28-.02-.11,0-.22-.01-.33-.02-.19-.01-.37-.03-.56-.04-.37-.03-.75-.07-1.13-.11-.09-4.6-.11-9.17-.11-13.74,0-1.51,0-3.03,0-4.54,0-2.26,0-4.53,0-6.79,0-.61,0-1.22,0-1.83,0-.7,0-1.4,0-2.11,0-1.04-.01-2.09-.03-3.14,1.01,0,1.82-.12,2.58.02,3.01.56,5.9.01,8.7-1.01,2.31-.84,4.56-1.86,6.83-2.8,3.88-1.6,7.89-2.52,12-1.2.15.05.3.1.45.15.17.06.33.12.5.18.37.14.73.28,1.09.44.13.05.26.11.39.17.17.08.35.15.52.23.15.07.3.14.45.21.12.06.25.12.37.18.2.09.4.19.6.29.27.13.53.26.8.39.58.29,1.17.58,1.76.87.11.05.22.11.32.17.11.06.21.12.32.19.51.32,1.01.71,1.57,1.11.06.05.13.09.19.14.07.05.13.09.2.14.71-.47,1.46-.94,2.18-1.45.19-.14.39-.27.58-.4.14-.09.28-.18.42-.27.3-.19.6-.37.91-.54.12-.06.23-.13.35-.19.15-.08.29-.16.44-.23.1-.05.21-.11.31-.16.27-.13.54-.26.82-.38.11-.05.22-.1.33-.14.01,0,.03-.01.04-.02.07-.03.14-.06.2-.08.04-.02.08-.03.12-.05.12-.05.24-.1.37-.15.38-.15.76-.28,1.15-.41.39-.13.78-.24,1.18-.35.16-.04.31-.08.46-.12,0,0,.02,0,.03,0,.13-.03.27-.07.4-.1.15-.04.3-.07.45-.1.15-.03.3-.07.45-.1.43-.09.87-.15,1.3-.19.93-.09,1.84-.08,2.75.01.03,0,.06,0,.09,0,.15.02.31.03.46.06.07,0,.13.02.2.03.1.01.2.03.3.05.12.02.24.04.36.06.43.08.86.18,1.29.29.14.03.27.07.41.11.27.08.54.16.81.25.16.05.32.11.48.16.15.05.3.11.45.16.02,0,.03.01.05.02.07.03.15.06.22.08.15.06.3.11.44.17.44.17.89.35,1.33.54.22.09.44.19.66.28.19.08.38.16.57.25.35.15.7.3,1.05.45.22.1.45.19.67.29.47.2.95.4,1.43.6,0,0,0,0,.02,0,.29.12.58.23.88.35,2.65,1.03,5.37,1.68,8.19,1.56.14,0,.27-.01.41-.02h0c.17,0,.35-.02.52-.04.18-.01.35-.04.53-.06.12-.01.23-.03.35-.05.07,0,.14-.02.21-.03.05,0,.1-.01.15-.02.1-.02.2-.03.31-.04.47-.03.99.02,1.77.02v2.63Z"/>
  <path class="cls-12" d="M95.1,319.51c1.72-.99,2.99-1.86,4.37-2.47,1.58-.69,2.21-1.69,2.1-3.42-.14-2.19-.03-4.39-.03-6.65h4.48v35.11c28.19.12,56.09.08,84.27.05v-35.04h4.47v8.88c2.08,1.15,3.99,2.21,6.32,3.5-1.28.71-2.16,1.23-3.06,1.71-.94.5-1.89.98-3.16,1.63,0,2.11-.07,4.39.05,6.67.03.49.66,1.08,1.16,1.4,1.45.91,2.96,1.7,4.88,2.78-2.16,1.31-4.02,2.44-6.07,3.68v8.55h-93.33c0-1.72-.15-3.35.04-4.95.28-2.4-.32-4.09-2.75-5.02-1.17-.45-2.18-1.32-3.58-2.2,2.27-1.32,4.16-2.41,6.31-3.66,0-1.68-.05-3.47.02-5.26.04-1.14-.43-1.8-1.43-2.32-1.57-.83-3.07-1.79-5.04-2.96Z"/>
  <path class="cls-14" d="M148.15,303.3c1.62-.9,3.13-1.91,4.77-2.62,5.87-2.55,11.77-2.59,17.69-.07,2.94,1.25,5.95,2.34,8.92,3.51,1.91.75,3.8.85,5.76.13.72-.27,1.57-.21,2.37-.3.11,2.36.09,2.39-1.65,2.61-3.74.48-7.37.22-10.85-1.38-1.56-.72-3.2-1.29-4.76-2.01-7.13-3.29-13.88-2.43-20.33,1.81-.68.45-1.36.91-2.14,1.43-.88-.61-1.72-1.24-2.61-1.8-5.53-3.42-11.35-4.64-17.61-2.23-2.07.8-4.12,1.62-6.15,2.52-4.09,1.82-8.32,2.41-12.92,1.48-.05-.74-.11-1.51-.16-2.23.31-.12.49-.26.59-.22,4.48,1.7,8.49.04,12.54-1.64,2.8-1.16,5.62-2.34,8.54-3.09,5.09-1.31,9.93-.11,14.52,2.24,1.17.6,2.31,1.24,3.45,1.86Z"/>
  <path class="cls-3" d="M205.91,615.29c0-1.6-.03-3.21,0-4.81.06-2.81.07-2.81,3.12-3.55.18,1.88,3.34,8.69,5.27,11.16-1.12.51-2.19.99-3.5,1.57-.03-3.53-1.98-5.99-3.05-8.8-.17.04-.35.08-.52.12v8.64c-3.01-1.37-4.64-3.95-7.25-5.24,1.56,2.64,1.5,6.25,5.26,7.76-1.3.62-2.31,1.09-3.46,1.63-.6-4.34-2.63-7.85-4.58-11.45,2.21-1.7,2.7-1.7,4.81.15,1.13,1,2.25,2.02,3.37,3.04.18-.07.35-.15.53-.22Z"/>
  <path class="cls-3" d="M234.21,604.46c-1.21-2.65-1.47-5.68-4.73-7.3,1.39-.57,2.44-1,3.59-1.47-.09,4.55,2.94,7.76,3.93,11.77-1,1.03-2.04.6-3.06,0-2.06-1.19-4.11-2.4-6.17-3.6-.48-.28-.99-.51-1.56-.8.44,2.92,2.25,5.89,4.62,7.27-1.28.62-2.34,1.13-3.54,1.71.08-3.49-2.93-9.98-5.02-11.17,1.62-1.67,3.31-1.3,5.07-.2,1.74,1.09,3.51,2.13,5.28,3.16.49.28,1.05.42,1.58.63Z"/>
  <path class="cls-3" d="M224.93,613.27c-2.75,1.22-5.29,2.34-7.96,3.53-.81-4.16-2.73-7.71-4.96-11.46,2.56-1.21,5.09-2.41,7.8-3.69.5,1.03.9,1.86,1.37,2.85q-4.39-.35-5.94.79c0,.16-.08.36-.01.47.52.91.87,2.16,1.66,2.58.62.33,1.78-.42,2.72-.64.37-.09.78-.05,1.32-.07-.47,1.84-2.46,1.32-3.44,2.76.53,1.17,1.15,2.53,1.74,3.83,2.87-.3,3.59-2.39,4.47-4.39,1.56.84,1.1,2.13,1.23,3.45Z"/>
  <path class="cls-3" d="M245.21,590.05c2.64-1.19,5.21-2.35,7.96-3.59.51,1.03.89,1.8,1.45,2.94-2.23-.36-4.16-1.16-6.08.56.42,1.04.89,2.2,1.43,3.54,1.47-.52,2.74-.96,4.08-1.43q-.16,1.05-3.23,2.92c.26.64.48,1.33.8,1.97,1.08,2.21,2.57,2.37,4.04.39.56-.76.87-1.69,1.31-2.57,2.05,1.9,1.86,3.11-.51,4.06-2.04.81-4.06,1.71-6.11,2.59-.86-4.21-2.74-7.78-5.15-11.37Z"/>
  <path class="cls-3" d="M245.93,603.48c-1.14.55-2.21,1.07-3.43,1.66-.64-3.98-2.69-7.11-4.17-10.48-1.91.4-1.35,2.37-2.59,3.09-1.22-.37-.86-1.57-1.53-2.57,3.19-1.52,6.19-2.94,9.46-4.49.49.97.94,1.86,1.57,3.11-1.73-.28-3.02-.49-4.96-.81,1.95,3.87,2.8,7.57,5.65,10.51Z"/>
  <path class="cls-3" d="M66.05,604.83c-.57,1.57-1.17,3.23-1.86,5.13-1-.47-2.14-1-3.34-1.56,2.45-2.31,4.75-6.97,5.52-11.2,1.95.93,3.86,1.8,5.72,2.76,1.4.73,1.94,2,1.66,3.52-.28,1.52-1.36,2.15-2.85,2.19-.14,0-.28.14-.19.09v7.06c-2.17-.73-2.18-.77-2.16-2.45.01-1.15.04-2.3-.11-3.43-.15-1.12-.69-2.02-2.39-2.1ZM66.93,603.11c1.06,1.18,2.2,1.72,3.37.93.63-.43,1.26-1.51,1.16-2.19-.18-1.26-1.29-1.91-2.72-2.09-.59,1.1-1.16,2.15-1.81,3.35Z"/>
  <path class="cls-3" d="M72.54,614.22c2.64-3.67,4.55-7.19,5.32-11.5,3.17,1.49,6.63,2.38,8.18,6.03,1.23,2.9-.74,7.05-3.87,7.72-1.31.28-2.8.29-4.09-.04-1.86-.49-3.61-1.41-5.55-2.2ZM80.22,605.11c-1.47,3.07-2.89,6.05-4.31,9.02,1.83,1.5,3.54,1.73,5.28.82,2.22-1.16,2.94-3.39,2.93-5.61-.01-2.16-1.68-3.38-3.9-4.23Z"/>
  <path class="cls-3" d="M56.08,605.68c-3.64,0-6.42-2.79-6.36-6.38.06-3.75,2.84-6.52,6.57-6.54,3.51-.02,6.46,2.76,6.44,6.09-.02,3.79-2.98,6.83-6.65,6.83ZM60.23,598.05c-.03-2.07-.79-3.36-2.15-3.82-1.59-.54-2.93-.04-3.98,1.19-1.39,1.62-2.12,3.5-1.88,5.67.33,2.97,2.94,4.22,5.34,2.5,1.97-1.41,2.57-3.52,2.67-5.54Z"/>
  <path class="cls-3" d="M92.37,611.31c-.46.95-.99,2.03-1.5,3.08.78,1.53,3.05,1.02,3.57,2.86-1.71.76-2.71-1.08-4.39-.97-.3.6-.72,1.28-1.01,2.02-.85,2.15-.2,3.08,2.15,3.08.56,0,1.12-.18,1.67-.3.53-.12,1.05-.26,1.89-.03-.63.87-1.25,1.75-2,2.79-2.75-1.36-5.34-2.64-8-3.95,2.98-3.27,4.34-7.06,5.54-11.24,2.58,1.23,5.13,2.44,7.9,3.76-.44,1.08-.81,1.99-1.35,3.31-1.23-2.05-1.53-4.35-4.46-4.4Z"/>
  <path class="cls-3" d="M49.57,592.8c-.28-.74-.49-1.41-.78-2.05-.92-2.03-3.16-2.59-4.86-1.18-1.88,1.55-2.87,3.53-2.69,6.03.18,2.37,1.35,3.38,3.72,3.11.7-.08,1.39-.29,2.11-.44.02,1.95-.26,2.33-1.61,2.36-2.48.07-5.42-2-6.27-4.42-.96-2.71-.02-5.79,2.27-7.47,2.22-1.64,6.26-1.52,8.3.23,1.17,1,1.15,2.3-.18,3.83Z"/>
  <path class="cls-3" d="M114.21,650.28c-1.87-3.07-1.81-6.04-2.81-8.77-1.51,2.6-1.77,7.36-.34,9.62-1.42-.26-2.55-.47-3.71-.69,1.8-4.01,2.54-7.92,2.54-12.22.94.18,2.02.39,3.28.64.61,2.37,1.21,4.72,1.94,7.59,1.89-2.11,2.98-4.32,4.64-6.38.89.14,1.9.31,2.99.48-.83,4.15-2.36,7.99-1.89,12.45-1.1-.19-2.31-.4-3.81-.67,1.93-2.86,2.05-5.94,2.01-9.2-1.51,2.23-3.02,4.46-4.84,7.15Z"/>
  <path class="cls-3" d="M139.97,646.17c.15,2.7-.59,5.46.78,8.21h-2.83c.24-2.03.7-4.08.65-6.12-.05-1.94,1.08-4.1-.91-5.78,2.67-.72,3.08-.58,4.36,1.38,1.51,2.32,3.04,4.63,4.61,7.02,1.22-2.23,1.03-5.56-.45-8.55h3.11c-.32,2.16-.69,4.22-.9,6.29-.21,2.02-.24,4.06-.35,6.06-1.36.72-1.94-.06-2.49-.91-1.48-2.27-2.95-4.53-4.42-6.8-.21-.32-.44-.63-.66-.95l-.5.14Z"/>
  <path class="cls-3" d="M177.36,640.08v3.58c-.69-.59-1.12-.89-1.47-1.27-.76-.85-1.72-.89-2.71-.73-1,.16-1.68.66-1.5,1.82.12.79.26,1.59.42,2.55h4.47c-.25,1.27-1.13.98-1.77,1.11-.64.13-1.28.23-2.24.4.1,1.45.2,2.86.28,4.12,2.96,1.2,4.2-1.05,6.01-2.59v3.67c-2.99.35-5.88.69-9.02,1.06.69-2.11.49-4.17.1-6.21-.38-1.98-.81-3.96-1.27-6.2,2.67-.4,5.53-.82,8.69-1.29Z"/>
  <path class="cls-3" d="M159.48,642.14h3.53c-1.38,1.86-1.09,3.84-.84,5.84.09.73.02,1.48-.03,2.22-.21,3.16-1.97,4.78-5.1,4.72-3.02-.06-4.34-1.25-4.62-4.29-.13-1.39-.05-2.8-.22-4.18-.16-1.28-.52-2.54-.84-4.02h3.66c-1.21,2.75-.38,5.43-.17,8.09.15,1.92,1.07,2.68,2.84,2.71,1.9.03,3.16-.8,3.2-2.65.06-2.8.41-5.71-1.42-8.44Z"/>
  <path class="cls-3" d="M135.24,654.38c-1.23-.06-2.33-.12-3.55-.18.07-.65.13-1.05.14-1.44.07-2.23-.22-2.56-2.39-2.75-.8-.07-1.6-.21-2.77-.36-.24,1.2-.48,2.43-.77,3.88-.88-.11-1.8-.22-2.76-.33,2.2-3.79,4.26-7.37,6.38-10.91.26-.43.82-.69,1.24-1.02.36.48.87.92,1.05,1.46.62,1.95,1.11,3.94,1.68,5.9.54,1.87,1.13,3.72,1.74,5.75ZM127.4,648.68h3.72c-.48-1.51-.88-2.77-1.46-4.59-.91,1.85-1.54,3.13-2.26,4.59Z"/>
  <path class="cls-3" d="M181.54,640.53c-.84.92-1.67,1.84-2.51,2.77-.14-.06-.29-.12-.43-.17v-3.16c3.12-.64,6.29-1.29,9.7-1.99.34,1.11.63,2.06,1.07,3.5-1.63-.79-2.8-1.36-4.03-1.95-.55,2.45,1.04,9.35,2.65,11.36-1.35.29-2.57.56-4.01.87.5-4.07-.98-7.58-1.61-11.27-.28.02-.56.04-.84.06Z"/>
  <g>
    <path class="cls-8" d="M196.34,641.81c0-2.76,0-4.97,0-7.18,0-3.37-.07-6.74.02-10.11.05-2.15-.71-3.75-2.33-5.15-5.33-4.64-10.59-9.36-15.87-14.06-.17-.15-.25-.38-.51-.79,1.07-.52,2.08-1.04,3.1-1.51,21.87-10.04,43.75-20.06,65.61-30.11,4.33-1.99,8.59-4.13,12.88-6.18.67-.32,1.36-.59,2.06-.83,1.59-.53,2.78.1,3.13,1.71.16.71.16,1.47.16,2.21,0,12.17,0,24.33,0,36.5,0,.74-.04,1.48-.06,2.22-.07,2.07-.97,3.61-2.88,4.5-1.49.69-2.97,1.41-4.47,2.07-19.22,8.51-38.45,17.01-57.68,25.51-.88.39-1.79.69-3.16,1.21ZM205.91,615.29c-.18.07-.35.15-.53.22-1.12-1.01-2.23-2.04-3.37-3.04-2.1-1.85-2.59-1.85-4.81-.15,1.96,3.59,3.98,7.11,4.58,11.45,1.15-.54,2.15-1.02,3.46-1.63-3.76-1.51-3.7-5.12-5.26-7.76,2.6,1.29,4.24,3.86,7.25,5.24v-8.64c.17-.04.35-.08.52-.12,1.07,2.82,3.02,5.27,3.05,8.8,1.3-.59,2.37-1.07,3.5-1.57-1.93-2.47-5.09-9.28-5.27-11.16-3.04.74-3.06.74-3.12,3.55-.03,1.6,0,3.21,0,4.81ZM234.21,604.46c-.53-.2-1.1-.34-1.58-.63-1.78-1.02-3.54-2.07-5.28-3.16-1.75-1.09-3.44-1.47-5.07.2,2.09,1.19,5.1,7.68,5.02,11.17,1.2-.58,2.26-1.09,3.54-1.71-2.37-1.38-4.18-4.35-4.62-7.27.57.29,1.08.52,1.56.8,2.06,1.19,4.11,2.4,6.17,3.6,1.03.6,2.06,1.02,3.06,0-.99-4.01-4.02-7.22-3.93-11.77-1.15.47-2.2.9-3.59,1.47,3.27,1.62,3.53,4.65,4.73,7.3ZM224.93,613.27c-.13-1.32.33-2.61-1.23-3.45-.87,2-1.6,4.09-4.47,4.39-.59-1.3-1.2-2.66-1.74-3.83.98-1.44,2.97-.92,3.44-2.76-.54.03-.94-.01-1.32.07-.93.22-2.1.97-2.72.64-.79-.41-1.15-1.67-1.66-2.58-.07-.12,0-.31.02-.47q1.55-1.14,5.93-.79c-.48-.99-.88-1.82-1.37-2.85-2.71,1.28-5.25,2.48-7.8,3.69,2.24,3.74,4.16,7.3,4.96,11.46,2.67-1.18,5.2-2.31,7.96-3.53ZM245.21,590.05c2.41,3.59,4.28,7.16,5.15,11.37,2.05-.87,4.07-1.77,6.11-2.59,2.37-.94,2.57-2.16.51-4.06-.44.87-.75,1.81-1.31,2.57-1.47,1.98-2.96,1.82-4.04-.39-.31-.64-.54-1.33-.8-1.97q3.07-1.87,3.23-2.92c-1.34.47-2.61.91-4.08,1.43-.54-1.34-1.01-2.5-1.43-3.54,1.91-1.72,3.85-.92,6.08-.56-.56-1.14-.94-1.91-1.45-2.94-2.75,1.24-5.32,2.4-7.96,3.59ZM245.93,603.48c-2.84-2.94-3.7-6.64-5.65-10.51,1.94.31,3.22.52,4.96.81-.63-1.25-1.08-2.13-1.57-3.11-3.26,1.55-6.26,2.98-9.46,4.49.67,1,.31,2.2,1.53,2.57,1.24-.72.68-2.69,2.59-3.09,1.47,3.37,3.53,6.5,4.17,10.48,1.21-.59,2.29-1.11,3.43-1.66Z"/>
    <path class="cls-8" d="M118.47,604.62c-1.7,1.55-3.08,2.83-4.48,4.07-4.11,3.66-8.21,7.34-12.36,10.96-1.28,1.11-1.86,2.38-1.84,4.08.05,5.18.02,10.36.01,15.53,0,.8,0,1.6,0,2.68-.94-.35-1.54-.55-2.12-.8-20.06-8.85-40.07-17.8-60.2-26.49-4.47-1.93-6.41-4.61-6.28-9.55.27-11.01.08-22.02.1-33.04,0-1.39.03-2.81.27-4.17.35-1.94,1.55-2.62,3.39-1.85,2.65,1.11,5.21,2.41,7.82,3.62,16.77,7.73,33.55,15.47,50.33,23.19,7.83,3.6,15.67,7.18,23.51,10.77.5.23.97.53,1.84,1ZM66.05,604.83c1.7.08,2.24.99,2.39,2.1.15,1.13.12,2.29.11,3.43-.02,1.68,0,1.72,2.16,2.45v-7.06c-.09.05.05-.09.19-.09,1.49-.04,2.57-.67,2.85-2.19.28-1.52-.26-2.79-1.66-3.52-1.86-.96-3.77-1.82-5.72-2.76-.76,4.22-3.06,8.89-5.52,11.2,1.21.56,2.34,1.1,3.34,1.56.69-1.9,1.29-3.56,1.86-5.13ZM72.54,614.22c1.94.79,3.68,1.71,5.55,2.2,1.29.34,2.78.32,4.09.04,3.13-.67,5.1-4.82,3.87-7.72-1.55-3.65-5.01-4.54-8.18-6.03-.78,4.31-2.68,7.83-5.32,11.5ZM56.08,605.68c3.67,0,6.62-3.04,6.65-6.83.02-3.33-2.92-6.12-6.44-6.09-3.73.03-6.51,2.8-6.57,6.54-.06,3.6,2.73,6.39,6.36,6.38ZM92.37,611.31c2.93.06,3.23,2.36,4.46,4.4.54-1.32.91-2.23,1.35-3.31-2.77-1.32-5.32-2.53-7.9-3.76-1.21,4.18-2.56,7.97-5.54,11.24,2.65,1.31,5.24,2.59,8,3.95.75-1.04,1.38-1.92,2-2.79-.84-.23-1.36-.08-1.89.03-.55.12-1.11.3-1.67.3-2.35,0-3-.94-2.15-3.08.29-.74.71-1.42,1.01-2.02,1.69-.11,2.68,1.74,4.39.97-.52-1.84-2.79-1.33-3.57-2.86.51-1.04,1.03-2.13,1.5-3.08ZM49.57,592.8c1.33-1.54,1.35-2.83.18-3.83-2.04-1.75-6.08-1.87-8.3-.23-2.29,1.68-3.23,4.77-2.27,7.47.86,2.42,3.79,4.49,6.27,4.42,1.35-.04,1.63-.42,1.61-2.36-.72.15-1.41.36-2.11.44-2.37.28-3.54-.73-3.72-3.11-.18-2.5.81-4.48,2.69-6.03,1.71-1.41,3.95-.85,4.86,1.18.29.64.5,1.31.78,2.05Z"/>
    <path class="cls-8" d="M102.48,658.03v-33.47c14.96,4.8,30.04,7.39,45.47,7.44,15.44.06,30.49-2.72,45.47-7.29v33.34c-30.3,10.13-60.49,10.03-90.94-.02ZM114.21,650.28c1.82-2.68,3.33-4.92,4.84-7.15.04,3.26-.08,6.33-2.01,9.2,1.5.26,2.71.47,3.81.67-.47-4.46,1.07-8.3,1.89-12.45-1.09-.18-2.1-.34-2.99-.48-1.66,2.06-2.74,4.26-4.64,6.38-.73-2.87-1.34-5.22-1.94-7.59-1.27-.25-2.34-.45-3.28-.64,0,4.3-.74,8.21-2.54,12.22,1.16.22,2.29.43,3.71.69-1.43-2.26-1.17-7.03.34-9.62,1,2.73.94,5.7,2.81,8.77ZM139.97,646.17l.5-.14c.22.32.45.63.66.95,1.48,2.27,2.95,4.53,4.42,6.8.55.85,1.13,1.63,2.49.91.11-1.99.15-4.03.35-6.06.21-2.08.59-4.13.9-6.29h-3.11c1.48,2.99,1.67,6.31.45,8.55-1.57-2.4-3.1-4.71-4.61-7.02-1.28-1.96-1.69-2.1-4.36-1.38,1.99,1.68.86,3.85.91,5.78.05,2.04-.41,4.09-.65,6.12h2.83c-1.37-2.75-.63-5.51-.78-8.21ZM177.36,640.08c-3.16.47-6.02.89-8.69,1.29.46,2.24.89,4.22,1.27,6.2.39,2.04.59,4.1-.1,6.21,3.14-.37,6.03-.71,9.02-1.06v-3.67c-1.81,1.54-3.05,3.79-6.01,2.59-.09-1.26-.18-2.66-.28-4.12.96-.17,1.6-.27,2.24-.4.64-.13,1.52.16,1.77-1.11h-4.47c-.16-.96-.29-1.75-.42-2.55-.18-1.16.49-1.66,1.5-1.82,1-.16,1.96-.12,2.71.73.34.38.78.68,1.47,1.27v-3.58ZM159.48,642.14c1.83,2.72,1.48,5.64,1.42,8.44-.04,1.85-1.3,2.68-3.2,2.65-1.78-.03-2.69-.78-2.84-2.71-.21-2.67-1.04-5.34.17-8.09h-3.66c.32,1.49.69,2.74.84,4.02.17,1.38.09,2.79.22,4.18.28,3.04,1.59,4.23,4.62,4.29,3.13.06,4.89-1.56,5.1-4.72.05-.74.11-1.49.03-2.22-.25-2-.54-3.98.84-5.84h-3.53ZM135.24,654.38c-.62-2.03-1.2-3.88-1.74-5.75-.57-1.96-1.06-3.95-1.68-5.9-.17-.54-.69-.98-1.05-1.46-.42.34-.98.59-1.24,1.02-2.11,3.54-4.17,7.12-6.38,10.91.96.11,1.88.22,2.76.33.29-1.46.53-2.68.77-3.88,1.17.15,1.96.29,2.77.36,2.17.19,2.46.51,2.39,2.75-.01.39-.08.78-.14,1.44,1.22.06,2.33.12,3.55.18ZM181.54,640.53c.28-.02.56-.04.84-.06.62,3.69,2.11,7.2,1.61,11.27,1.44-.31,2.65-.57,4.01-.87-1.61-2-3.2-8.9-2.65-11.36,1.23.59,2.39,1.16,4.03,1.95-.44-1.44-.73-2.39-1.07-3.5-3.42.7-6.58,1.35-9.7,1.99v3.16c.14.06.29.12.43.17.84-.92,1.67-1.84,2.51-2.77Z"/>
    <path class="cls-8" d="M66.93,603.11c.65-1.21,1.22-2.26,1.81-3.35,1.43.18,2.54.83,2.72,2.09.1.68-.54,1.77-1.16,2.19-1.17.79-2.3.25-3.37-.93Z"/>
    <path class="cls-8" d="M80.22,605.11c2.22.85,3.89,2.08,3.9,4.23.01,2.22-.7,4.45-2.93,5.61-1.74.91-3.46.68-5.28-.82,1.42-2.97,2.84-5.95,4.31-9.02Z"/>
    <path class="cls-8" d="M60.23,598.05c-.11,2.03-.7,4.14-2.67,5.54-2.41,1.72-5.01.47-5.34-2.5-.24-2.18.49-4.05,1.88-5.67,1.05-1.23,2.39-1.73,3.98-1.19,1.36.46,2.12,1.75,2.15,3.82Z"/>
    <path class="cls-8" d="M127.4,648.68c.72-1.46,1.35-2.74,2.26-4.59.58,1.82.98,3.08,1.46,4.59h-3.72Z"/>
  </g>
  <path class="cls-7" d="M105.1,357.03v73.9H34.49c0-23.66.04-47.33.06-70.99,0-.8.08-1.61.12-2.54,23.48-.21,46.96-.32,70.43-.37Z"/>
  <path class="cls-7" d="M34.55,509.04h70.55v69.13c-19.21-9.19-38.44-18.34-57.61-27.61-8.46-4.09-12.9-10.91-12.91-20.43,0-7.03-.02-14.06-.03-21.09Z"/>
  <path class="cls-7" d="M261.35,509.04c0,7.28.03,14.55.04,21.83,0,5.48-1.74,10.31-5.32,14.48-2.08,2.42-4.66,4.15-7.5,5.5-17.51,8.32-35.03,16.62-52.54,24.94-1.5.72-3.01,1.43-4.51,2.15v-68.89h69.82Z"/>
  <path class="cls-7" d="M261.41,429.01v1.92h-69.89v-73.84c23.27.07,46.57.17,69.89.27v2.83c0,22.94,0,45.88,0,68.82Z"/>
  <path class="cls-5" d="M261.41,430.93c-.01,25.59-.05,51.17-.06,76.76v1.35h-69.82v68.89c-13.92,6.62-27.84,13.25-41.74,19.93-1.33.64-2.3.62-3.61-.02-13.17-6.37-26.38-12.64-39.57-18.95-.5-.24-1-.48-1.5-.72v-69.13H34.55c-.03-23.55-.06-47.11-.06-70.66,0-2.48,0-4.96,0-7.45h70.61v-73.9c28.8-.06,57.6-.03,86.43.06v73.84h69.89Z"/>
  <g>
    <path class="cls-3" d="M124.19,322.97c0,.57-.15,1.09-.46,1.55-.31.46-.76.81-1.35,1.07-.59.26-1.29.39-2.1.39-.97,0-1.77-.18-2.41-.53-.45-.25-.81-.59-1.09-1.02-.28-.42-.42-.84-.42-1.24,0-.23.08-.43.25-.6.17-.17.38-.25.64-.25.21,0,.39.06.53.19.15.13.27.32.37.58.13.3.26.55.41.76.15.2.35.37.61.5.26.13.61.2,1.04.2.59,0,1.07-.13,1.44-.4.37-.27.55-.6.55-.99,0-.31-.1-.57-.3-.77-.2-.2-.46-.35-.77-.45-.32-.1-.74-.21-1.27-.33-.71-.16-1.3-.35-1.78-.56s-.86-.5-1.14-.87c-.28-.37-.42-.83-.42-1.37s.15-.98.44-1.39c.3-.41.72-.72,1.28-.93.56-.22,1.22-.33,1.98-.33.6,0,1.13.07,1.57.22.44.14.81.34,1.1.58.29.24.5.49.64.75.13.26.2.52.2.77,0,.23-.08.43-.25.62-.17.18-.38.27-.63.27-.23,0-.4-.05-.52-.16-.12-.11-.25-.29-.39-.54-.18-.36-.39-.64-.64-.84-.25-.2-.65-.3-1.21-.3-.52,0-.93.11-1.25.33-.32.22-.47.48-.47.79,0,.19.05.35.16.49s.26.26.44.36c.19.1.38.18.57.23.19.06.51.14.95.25.56.13,1.06.26,1.51.41.45.15.83.33,1.15.55s.56.49.74.82c.18.33.27.73.27,1.21Z"/>
    <path class="cls-3" d="M134.28,322.82c0,.3-.08.63-.23.98-.15.35-.4.7-.73,1.03-.33.34-.75.61-1.27.82-.52.21-1.12.32-1.8.32-.52,0-.99-.05-1.42-.14-.43-.09-.81-.24-1.16-.44-.35-.2-.67-.46-.96-.79-.26-.3-.48-.63-.67-1-.18-.37-.32-.76-.41-1.18-.09-.42-.14-.86-.14-1.33,0-.76.12-1.45.35-2.05.23-.6.56-1.12.99-1.55.43-.43.93-.76,1.51-.98.58-.22,1.19-.34,1.85-.34.8,0,1.51.15,2.13.46.62.31,1.1.68,1.43,1.13.33.45.5.88.5,1.28,0,.22-.08.41-.24.58-.16.17-.36.25-.58.25-.26,0-.45-.06-.57-.17s-.27-.32-.43-.6c-.26-.47-.57-.82-.92-1.05-.35-.23-.79-.35-1.3-.35-.82,0-1.47.3-1.96.9-.49.6-.73,1.45-.73,2.55,0,.74.11,1.35.32,1.84.21.49.52.85.91,1.1.39.24.86.36,1.38.36.57,0,1.06-.14,1.45-.41.4-.27.7-.68.9-1.21.09-.25.19-.45.32-.61.13-.16.33-.24.6-.24.24,0,.44.08.61.24.17.16.26.36.26.59Z"/>
    <path class="cls-3" d="M136.15,324.81v-7.47c0-.39.09-.68.28-.87.18-.19.42-.29.71-.29s.54.1.73.29c.19.19.28.48.28.88v7.47c0,.39-.09.69-.28.88-.19.19-.43.29-.73.29s-.52-.1-.71-.29c-.19-.2-.28-.49-.28-.88Z"/>
    <path class="cls-3" d="M146.87,317.82h-4.49v2.33h4.14c.3,0,.53.07.68.2.15.13.23.31.23.52s-.07.39-.22.53-.38.2-.69.2h-4.14v2.7h4.65c.31,0,.55.07.71.21.16.14.24.33.24.56s-.08.41-.24.55c-.16.14-.4.21-.71.21h-5.42c-.43,0-.75-.09-.94-.28-.19-.19-.29-.48-.29-.9v-7.12c0-.28.04-.5.13-.68.09-.17.22-.3.4-.38.18-.08.41-.12.7-.12h5.27c.32,0,.55.07.71.2.15.14.23.31.23.53s-.08.4-.23.54c-.15.14-.39.2-.71.2Z"/>
    <path class="cls-3" d="M152.16,317.33l3.84,5.59v-5.64c0-.37.08-.64.25-.82.16-.18.38-.27.66-.27s.51.09.68.27c.17.18.25.46.25.82v7.45c0,.83-.36,1.25-1.07,1.25-.18,0-.34-.02-.48-.07-.14-.05-.28-.13-.4-.24-.13-.11-.24-.23-.35-.38-.11-.14-.21-.29-.32-.44l-3.74-5.52v5.55c0,.36-.09.64-.26.82-.17.19-.4.28-.67.28s-.51-.09-.68-.28c-.17-.19-.26-.46-.26-.82v-7.31c0-.31.04-.55.11-.73.09-.19.23-.35.42-.48.2-.12.41-.18.64-.18.18,0,.33.03.46.08.13.06.24.13.34.23.1.09.19.22.3.37.1.15.2.31.31.47Z"/>
    <path class="cls-3" d="M166.4,317.92h-2.18v6.89c0,.4-.09.69-.28.88-.18.19-.42.29-.71.29s-.54-.1-.72-.29c-.19-.19-.28-.49-.28-.88v-6.89h-2.18c-.34,0-.59-.07-.76-.22-.17-.14-.25-.34-.25-.57s.09-.44.26-.58c.17-.14.42-.21.75-.21h6.34c.34,0,.6.07.77.22.17.15.25.34.25.58s-.09.43-.26.57c-.17.14-.43.22-.77.22Z"/>
    <path class="cls-3" d="M168.69,324.81v-7.47c0-.39.09-.68.28-.87.18-.19.42-.29.71-.29s.54.1.73.29.28.48.28.88v7.47c0,.39-.09.69-.28.88s-.43.29-.73.29-.52-.1-.71-.29c-.19-.2-.28-.49-.28-.88Z"/>
    <path class="cls-3" d="M179.22,324.74l-.47-1.19h-4l-.47,1.22c-.18.47-.34.79-.47.96-.13.17-.34.25-.64.25-.25,0-.47-.09-.67-.27-.19-.18-.29-.38-.29-.6,0-.13.02-.26.07-.4.04-.14.12-.33.22-.58l2.52-6.15c.07-.18.16-.39.26-.64.1-.25.21-.45.32-.62.11-.16.26-.3.45-.4.19-.1.42-.15.69-.15s.51.05.7.15c.19.1.34.23.45.39.11.16.21.33.29.51.08.18.18.43.3.73l2.57,6.12c.2.47.3.8.3,1.02s-.1.42-.29.6c-.19.18-.42.27-.69.27-.16,0-.29-.03-.4-.08-.11-.05-.21-.13-.28-.22-.08-.09-.16-.23-.25-.43s-.16-.36-.23-.51ZM175.27,322.11h2.94l-1.48-3.91-1.46,3.91Z"/>
  </g>
  <g>
    <g>
      <polygon class="cls-16" points="146.36 384 145.7 385.69 144.03 384.96 138.96 382.75 141.18 387.82 141.9 389.49 140.21 390.16 135.05 392.17 140.21 394.2 141.9 394.86 141.18 396.53 138.96 401.61 144.03 399.39 145.7 398.66 146.36 400.35 148.38 405.51 150.39 400.35 151.07 398.66 152.74 399.39 157.81 401.61 155.59 396.53 154.87 394.86 156.56 394.2 161.72 392.17 156.56 390.16 154.87 389.49 155.59 387.82 157.81 382.75 152.74 384.96 151.07 385.69 150.39 384 148.38 378.85 146.36 384"/>
      <g class="cls-18">
        <rect class="cls-6" x="135.05" y="378.85" width="26.68" height="26.66"/>
      </g>
    </g>
    <g>
      <polygon class="cls-16" points="146.36 544.72 145.7 546.42 144.03 545.69 138.96 543.47 141.18 548.54 141.9 550.21 140.21 550.89 135.05 552.9 140.21 554.93 141.9 555.58 141.18 557.26 138.96 562.33 144.03 560.12 145.7 559.38 146.36 561.08 148.38 566.23 150.39 561.08 151.07 559.38 152.74 560.12 157.81 562.33 155.59 557.26 154.87 555.58 156.56 554.93 161.72 552.9 156.56 550.89 154.87 550.21 155.59 548.54 157.81 543.47 152.74 545.69 151.07 546.42 150.39 544.72 148.38 539.57 146.36 544.72"/>
      <g class="cls-19">
        <rect class="cls-6" x="135.05" y="539.57" width="26.68" height="26.66"/>
      </g>
    </g>
  </g>
  <g>
    <g>
      <polygon class="cls-16" points="64.9 461.8 64.24 463.5 62.57 462.77 57.5 460.56 59.72 465.62 60.44 467.3 58.75 467.97 53.59 469.98 58.75 472.01 60.44 472.67 59.72 474.34 57.5 479.41 62.57 477.2 64.24 476.46 64.9 478.16 66.92 483.31 68.93 478.16 69.61 476.46 71.28 477.2 76.36 479.41 74.13 474.34 73.41 472.67 75.11 472.01 80.27 469.98 75.11 467.97 73.41 467.3 74.13 465.62 76.36 460.56 71.28 462.77 69.61 463.5 68.93 461.8 66.92 456.65 64.9 461.8"/>
      <g class="cls-17">
        <rect class="cls-6" x="53.59" y="456.65" width="26.68" height="26.66"/>
      </g>
    </g>
    <g>
      <polygon class="cls-16" points="227.61 461.8 226.95 463.5 225.28 462.77 220.21 460.56 222.43 465.62 223.15 467.3 221.46 467.97 216.3 469.98 221.46 472.01 223.15 472.67 222.43 474.34 220.21 479.41 225.28 477.2 226.95 476.46 227.61 478.16 229.63 483.31 231.64 478.16 232.32 476.46 233.99 477.2 239.06 479.41 236.84 474.34 236.12 472.67 237.81 472.01 242.97 469.98 237.81 467.97 236.12 467.3 236.84 465.62 239.06 460.56 233.99 462.77 232.32 463.5 231.64 461.8 229.63 456.65 227.61 461.8"/>
      <g class="cls-21">
        <rect class="cls-6" x="216.3" y="456.65" width="26.68" height="26.66"/>
      </g>
    </g>
  </g>
  <g>
    <g class="cls-20">
      <rect class="cls-10" x="90.5" y="428.24" width="118.35" height="80.58"/>
    </g>
    <g class="cls-15">
      <rect class="cls-9" x="153.08" y="502.36" width=".13" height=".08"/>
    </g>
    <path class="cls-11" d="M210.4,489.33c-.82,0-2.38.38-3.15-.43.76-1.52,1.94-1.14,1.94-1.95-.37-.38-1.18-.38-1.57-.76-.38-.75,1.2-2.33.82-3.9-.43-.39-.76-.15-1.19,0-1.2.37,1.58-2.35.38-3.15-2.71.8-4.67,2.76-7.82,2.38-.36-.41-.73-2.52-3.43-2.75-.15-.01-.47-.02-.91.3-1.7,1.2-4.75,2.73-6.2,1.64-1.02-.74-1.53-2.49-1.87-3.95-.19-.79-.64-3.19-.95-3.7-1.45-2.38-5.64-3.33-6.94-7.16,6.97,1.51,20.55,1.52,20.31-11.54,0-.24.04-.35.26-.48,1.1-.7,5.08-2.47,4.14-7.06-.03-.15-.12-.63-.11-.96,0-.94.1-1.88.65-2.79.23-.35.54-.62.54-.62-1.94-1.56-5.04,7.6-7.37-2.06-.03-.23-.41-.85-.84-.71,0,.81-.92,2.16-1.57,1.95-1.96-.76-3.54-5.48-5.11-5.05.41,1.86.78,3.31-.21,3.46-.06,0-.18.01-.34-.03-1.49-.44-2.59-1.92-4.11-2.29-.38.82.37,1.58-.38,2.33-2.77.44-4.3-.75-5.87-1.14,0,.35.31.69.37,1.35.02.17-.07.29-.11.32-.7.54-1.68,0-2.12-.09-.08-.02-.14.01-.14.13-.04.66,1.6,1.39,1.02,3.22-.16.53-.33.78-.43.9-.88,1-3.82,1.74-4.84-.35-.43-.81,2.34-.81,2.72-1.2-.37-.75-1.57-1.19-.76-3.15.39-1.95,8.2-3.47,7.82-7.82-1.57-.38-6.68,3.16-6.29-1.52-.38,0-.52.11-.59.16-1.94,1.47-4.57,2.92-7.24,2.56-2.33-.76-4.28-5.1-8.57-5.87v2.72c-2.72,0-5.1,0-5.48,1.57,2.33,0,3.91,0,4.73,2.34.75,2.39-4.73,3.53-7.83,7.06-.99-.72-2.38-2.71-2.76-2.71.9-1.03,1.44-2.13,1.48-3.17.04-1.03-.29-2.01-.66-2.7-.28-.52-.43-.82-.82-1.19-1.96,1.19-6.25.76-4.29-1.19-.38,0-.76-.39-1.96,0-2.33,0-5.1,0-7.05,1.57-1.52-1.95-3.91-3.52-6.25-3.91-.38-.37-.76-.75-1.14-.75-.44,1.95-1.58,2.33-3.53,1.95,0,.76.38,1.57.38,1.95,0,0-1.96-.81-4.29,0-1.19,0-2.33-.37-2.77-.37,0,.37,1.2,1.14,1.2,1.52-.38,1.96-2.72,2.39-3.53,3.16.82.75,1.19.75,1.57,1.57.28.44-2.33,2.72-2.72,3.09.76.44,2.53.73,2.34,1.2-.81,1.57-2.77,2.71-2.77,4.67.43,0,.82-.38,1.58,0-1.08,1.47-1.85,3.27-2.57,5.41-.17.41.07.69.25.78.19.09.35.11.35.11,0,1.14-.38,1.95-.76,2.72-.82.76-3.92-4.67-3.92-8.59,0-8.24,1.58-6.67,1.58-8.24,0-1.96-1.96-1.52-2.77-2.71-1.57-2.72-5.86-3.54-7.82-1.58,1.2.38,1.96.38,2.77,1.96.37.82-.44.82-.44,1.58-.76,0-1.14.38-1.52,0-1.57-1.2-5.1-2.72-7.43,0,1.86.36,3.72,1.46,4.22,3.59.04.19.04.4,0,.51-.85,1.96-3.46-1.38-3.46-1.38-1.08,1.51-1.13,5.12,1.21,6.16.11.05.52.09.58.08.77-.15.4.88,1,1.39.09.08.59.31.72.34.62.15,1.39-.05,2.01-.11.3-.03.53.05.72.21.35.29.33.59-.06,1.02-.09.1-.27.36-.52.4-.7.23-1.43-.09-2.12-.09,0,0-.18,1.47.52,2.26.73.81,1.76,1.28,3.01,1.28.77,0,.77,1.19.38,1.58-2.34,1.57-4.29,1.95-5.48,4.66,1.19-.37,2.33-.37,2.33.38,0,1.2-.77,1.57-1.53,2.38,0,0-.43,0-.43.38.81.38,1.96-.38,2.39.38.76.75-2.77,2.71-2.39,4.29,1.57-.38,3.52-.76,3.91,1.2,0,1.13-.76,2.33-1.95,3.09,1.56,0,3.14-.76,3.53,0,.37.43-2.34,1.95-2.34,3.52,1.19-.37,1.96-.75,3.15-.37.76,1.57-2.77,2.71-3.15,2.71,1.19,1.96,6.24,1.57,8.58.43.81,3.48,5.11,3.48,5.11,3.91-1.2,1.14-2.33,3.48-1.96,4.67.39,3.53-1.57,6.62-5.48,6.62-2.33,0-4.67-.38-5.48-2.72-.76-2.32-2.34-2.32-3.91-1.19-2.34-1.14-5.43.81-6.24,3.15,1.57-.37,6.24,1.19,3.52,3.91-1.95,0-3.91,1.19-4.29,4.67,8.58-2.34,7.43,3.15,1.57,4.72,3.47,3.09,5.05,1.96,8.2.76.55-.28.77-.11,1.15,0,2.41,1.04,2.43-2.09,3.15-2.65.33-.31.77-.18,1.03-.05.13.06.25.25.27.31.48,1.71-.88,2.41-.11,2.78,2.54.4,4.41-2.99,4.64-5.71.01-.19.22-.76.35-.91.43-.5,1.05-1.21,1.63-1.21,1.58-.38,3.15,2.77,9.4.82,0-.38-.82-1.2-.38-1.58,1.15-.37,2.34-.76,3.47-1.19,1.2-1.14,3.15-.76,4.35-1.95-.44,0-1.2-.38-1.2-.76.39-.38,2.72-.38,2.34-1.2,0,0-.38,0-.76-.38-.81-.38,5.49-3.1,5.49-3.91-.44,0-2.39-2.34-1.58-2.72,1.14-.37,2.71-.81,3.53-1.96,1.14-.37,8.97-2.77,12.11-3.92,0,2.72.31,4.12,1.4,5.1.8.72,1.7,1.15,3.27,1.53,2.33.38,4.72-.38,7.44,0,2.34,0,2.34,3.52-.38,4.29-1.57.43-3.15.43-4.72.43-2.82-.3-3.29-1.13-4.29-2.39-.38-.37-.37-.42-1.25-.88-1.08-.58-1.92-.61-2.88-1.29-.95-.67-1.35-2.5-2.88-2.5-.96,0-1.57.38-1.95.76-2.39-1.52-6.3,1.19-5.86,3.9,1.06-.7,2.82-.76,3.72,1.11.07.15.13.3.05.64-.08.35-.4.89-.68.63-3.53-1.96-6.25,3.1-5.05,4.29,1.13-.81,2.71-1.19,4.28,0,.77.38.77,1.14.77,1.96-2.34.75-3.53,1.57-4.29,5.48-.06.66.37.38.37.38,1.96-1.58,3.92-1.58,5.87-1.58,1.2,1.19,2.77,1.58,3.92.76,1.63-1.19,3.16-3.56,3.86-3.85.29-.11.58-.32.83.11.25.43.02,1.31.02,1.31-.24.89-1.11,1.48-1.96,2.04,0,.38.76.92,1.96.92,1.52,0,2.41-.09,3.52-.82.25-.16.39-.1.39-.1,0,0,.16.02.06.38-.12.61-.8,1.58-.5,1.58,1.95.38,3.53,0,4.34-1.58.77.82,1.15,1.95,2.34,2.39,0-1.19.38-2.78,1.58-3.54,0,.76,1.14,3.91,1.95,3.1,0-.28.41-1.4.77-1.98.13-.21.44-.46.49-.46.42-.03,1.18,2.84,2.21,2.44.44-1.13,1.57-3.1,1.95-3.47,1.58.37,3.91,1.13,5.49.76-1.57-1.95-1.96-2.71-1.96-4.68,0-1.57,1.97-2.02,2.83-3.11.86-1.11,1.08-1.6,1.08-2.75-.38-1.57-2.33-2.39-3.53-3.52-1.52-1.58-.4-4.08-.29-4.3.11-.21.15-.31.29-.42,1.96,1.58,3.53,2.77,5.1,3.91,1.96,1.58,4.67,1.95,7.06,1.58,2.71-.38,8.2,0,8.2,3.15,0,1.57-1.95,3.91-3.53,3.52-1.2-.81-1.2-3.15-2.72-3.52-.82-.39-1.95.37-2.77,1.13-2.71-1.13-5.48-.76-7.43,3.15,0,.76.81.37,1.19.37,1.58-.37,3.53,0,4.67,1.2,0,.37-.38,0-1.52,1.95-1.95.38-3.9,3.53-3.9,6.24.05.37,0,.38.38.38,1.96-1.13,3.91-1.95,6.24-1.95.38.38.38,1.19.38,1.57-1.57.77-3.1,1.2-4.67,1.2-.38.05-.31.51,0,.76,2.33,2.33,7,2.33,8.59.75,3.52.44,5.1-2.33,3.89-4.66-.17-.33.11-.73.39-.76,1.95-.44,2.76,2.33,2.38,4.29,2.05.7,4.03-2.29,4.29-3.91,2.34,0,3.91-.38,6.63-2.77-.61,0-1.51-.25-2.03-.73-.31-.29-.54-.41-.37-.7.39-.52,2.55-1.42,3.21-2.05,0-.43-.81-.81-.81-1.19.38-.76,2.34-1.19,2.34-2.34,0,0-1.53,0-1.53-.38.38-.43,3.1-2.38,3.91-3.91M96.63,444.95c0,.17-.11.22-.15.23-1.11.14-2.2-2.75-1.83-3.18.44,0,.44,1.19,2.38,1.58,0,.32-.31.96-.4,1.37M94.26,498.5s-.2.11-.29.08c-.93-.28-1.41-.21-2.8.53.37-1.57,2.71-2.39,3.09-1.96v1.35ZM138.84,494.01c.03.35-.19.29-.49.14-.08-.04-.47-.2-.57-.23-1.03-.29-1.73-.26-2.48.1.39-1.2,2.34-1.96,3.54-1.57.38.07-.38,0,0,1.57M139.6,500.64c-1.96,0-2.33.43-3.47.81,0-.76,2.1-2.56,3.29-2.38.19,0,.19.16.19.2,0,.61.03.67.44,1.37h-.44ZM178.69,503.79c0-.76,1.19-3.15,2.38-3.15,0,.81.38,1.57.76,2.39.38.38-2.33.38-3.15.76M154.1,440.85c2.33-2.33,6.62-3.53,6.62-5.86.37-2.99-2.77-3.38-3.1-3.53,1.15-.76,3.92.37,4.67,1.96.38.38.38-2.72-.38-4.29,0,0,.3,0,.82.31,3.08,2.3,3.03,5.28,1.89,7.51-.11.3.5.84.82.38,1.47-3.06,5.22-2.73,7.97-3.82.07-.03.31-.08.34-.07.26.07.26.36.26.36-.7.35-1.13,1.07-1.49,1.48-.05.05-.12.13-.05.26.1.21.42.21.78.21,5.05,0,7.82-2.33,8.2-1.96,0,.38-.82,2.33-8.2,4.29-1.58,2.39,1.14,4.34.76,4.72-1.96.37-3.14-.82-3.14-2.77,0-.33,0-.37-.26-.37-.12-.01-.24.14-.29.22-1.95,2.76,1.81,6.47,4.46,7.21v.38s-.62.11-1.14,0c-7.94-1.52-6.36-7.78-13.01-7.49-.19,0-.71.02-1.07.16-1.96.64-4.75,2.84-5.46,5.38-.38,2.33,1.14,5.1,3.09,5.86,5.49,1.58,9.77-1.14,14.5-3.1,2.34.76,4.67.39,5.87-.81,0,0-1.58-.38-1.95-1.14,0,0,.56-.03.65-.04,2.53-.44,3.63-1.26,3.26-4.3,1.96,0,3.9,2.39,4.28,3.15,1.2,0-.76-3.53-1.19-4.29,2.39.76,4.34,1.14,5.49,3.91,1.18,0-.76-5.1-.39-4.73,3.91,1.96,3.54,5.49,3.91,5.11,1.2-1.57.38-3.15.77-4.29,2.33,1.11,4.25,2.65,3.23,4.89-.07.17-.07.33-.04.38.1.21.33.21.33.21.82,0,1.96-2.39,1.96-2.76,1.19,1.57,1.96,3.52,1.19,5.1-.15.29-.31.36-.36.58-.02.11.05.24.09.26.35.25.73.04,1.03-.09,1.95-1.14,1.58-3.52,2.78-4.28,1.08,4.11.43,6.43-3.39,7.66-.68.22-.96.54-.96.54.43,1.96,0,3.91-.77,5.49-1.19,3.14-3.52,4.29-6.23,5.48-3.91,1.58-11.73,1.14-14.88-1.19-.54-.44-.76-.76-1.15-1.14,5.06,1.52,18.36,2.33,20.69-5.1,1.96-5.11-2.71-8.59-6.63-9.02-8.19-.76-15.25,2.77-25.02,5.87-4.66,1.19-12.92.82-12.92-5.87-.38-2.71.43-5.05,2.77-7M169.35,447.86c0,.43-5.87,2.39-8.25,2.39-4.29,0-5.05-1.96-5.05-3.91-.37-2.39,3.91-5.86,6.63-4.34,2.34,1.58,3.91,4.34,6.68,5.86M150.57,451.77l.38-.38c1.96,4.29,6.67,4.72,10.97,3.91,7.82-1.14,18.35-5.48,25.02-5.48,2.33,0,7.82,1.2,7.82,4.73,0,2.33-.8,3.53-2.38,5.05-2.34,1.57-8.2,1.96-10.53,1.96-1.72,0-6.46,0-8.4-1.59-.26-.22-1.28-1.07-1.6-1.2-1.11-.46-2.17-.68-3.68-.68-5.49,0-11.74,3.1-16.41,3.1-.81,0-1.57-7.01-1.18-9.39M150.19,448.68q0,.37-.38.37c-.43,0-1.2-.37-1.57-1.95-.38-1.57-1.96-2.71-3.53-3.15.39-.76,0-1.51,0-2.33,1.19-.38,2.33-.38,3.15.38,1.14.82.38,2.77,1.96,5.86,0,.43.38.43.38.82M135.69,470.93c-1.95-1.57-2.34-2.34-3.09-4.29-.38-3.52,1.14-7.05-.38-10.53,0-.44-.82-1.19,0-1.19.76-.38,1.52-.77,1.96-1.19,1.52,1.57,1.52,6.67,1.52,8.25-.39,3.47-1.15,5.05,0,8.96M130.65,477.18c-2.77-.39-3.53-4.28-2.77-8.95.44-3.54,2.39-5.87,1.96-10.16.43,0,1.19-1.19,1.19-1.95,2.72,5.86-2.71,13.24,1.96,17.97-2.72.75-3.53-2.76-3.53-1.95-.38,1.58.38,3.53,1.2,5.05M126.73,478.75c-2.33-2.33-2.77-7.81-2.77-10.91.44-1.95,1.2-6.29,2.39-8.24,0,0,0,.44.38.44,1.14,0,1.14-.44,2.33-1.2,0,7.44-4.28,6.25-2.33,19.92M122.83,468.98c-.38,1.96-4.72,6.68-9.39,5.86,11.35-7,6.62-12.86,9.39-17.2.76-.39,1.13-1.52,2.33-1.52,0,1.52,1.19,2.33.76,3.09-1.14,2.34-2.72,7.06-3.09,9.77M123.59,475.22c-.76.82-1.15.82-1.96,2.39,0,0-1.15-3.14-.38-4.72.38-.39,1.19-1.15,1.58-1.96.37,1.19.37,3.15.76,4.29M112.23,470.55c4.35-3.15,5.49-6.24,8.63-9.77,0,1.57,0,4.29-1.57,6.62-1.58,2.39-5.49,2.77-7.07,3.15M134.55,449.05q-.37,0-.8.38c0,1.2-3.1.39-3.48,0v-1.57c.38-.38.76,1.19,1.52,1.19.82.38.82,0,1.57-.76.38,0,0-.43,0-.43-.76-1.14-1.14-3.09-.38-4.67h.76c.8.76,0,2.34.8,2.72.39.43.76.82,1.15.82,1.2-.39.43-1.58.81-2.77.38-.37,1.14-1.14,2.34-1.14,0,.37,0,.76.38,1.14,0,.44,1.18.82.37,1.2-.76,1.19-1.14,2.71-1.52,4.28-.82,1.2-3.91,2.34-6.3,3.91-.38-.37,0-1.14-.38-2.33.82,0,1.58,0,2.34-.38.44,0,1.57.38,1.95-.38,0-.82-.39-1.57-1.15-1.19M128.31,455.3c.75-1.14,1.52-5.05,1.95-4.28,1.52,3.14-1.95,7.06-2.76,6.63-.77,0-1.58-4.67.81-7.01,0-.38.37,0,.37,0-.37,1.58-.81,3.1-.81,4.67h.44ZM132.22,446.72c.38.76.76,1.14,0,1.57,0,0-.43.39-.43,0l-1.14-1.19c-.82-.77-1.58,0-2.33,0v-.77c1.95-.43,2.71-1.95,3.47-3.52h.43c.38.37-1.19,2.33,0,3.91M139.23,441.99c-1.15-.38-4.68,1.19-6.25,0,.38-1.14,1.57-3.09,3.15-3.09,1.14-.37,3.1,1.14,3.47,2.34,0,0,.44,0,.81-.38.76,0,1.58,0,2.33.76.38.38.38.82,0,1.57-.37.39-1.95,1.96-2.71.39-.44-.39,0-1.14-.81-1.58M132.22,441.62c-1.19-.38-4.72-3.91-5.11-3.91,0,0-.31,1.3-1.82,1.55-.15.02-.56.11-.86-.15-.87-.65-1.09-2.48-.17-3.57.14-.22.89-.38,1.22-.37.62.02,1.14.37,1.63,1.4,1.57,0,3.53.38,4.67,1.14.82,0,1.19.82,1.19,1.58-.38.75-.38,1.95-.76,2.33M125.16,441.99c0-.38-.38-1.52.76-1.96.44,0,.82-.37,1.19-.75.39,0,.76.75,1.2,1.19-.44,1.14-1.58,1.96-1.2,3.1,0,0,.39.37.76.37.81-.37,1.58-.76,1.96-1.95h.43s.38,0,.38.44c0,.38-.38,1.14-.38,1.51-.43.82-1.58,1.2-1.95,1.58-.44.38-1.2.38-1.2.8.39.77.76,1.14,1.2,1.52.37.43.75,0,1.14,0,0,.43-.38.82-.38,1.57-.38,0-1.19-.38-1.56-.38-.39-.37-.77-.76-.77-1.19,0-.38,0-1.14-.38-1.52h-1.19q-.38.39-.38.77c0,.38,0,.76.38.76.76,0,.76.82,1.19,1.19.38.76,1.52.76.76,1.57-.38,0-.38.38-.76.76-.44,0-.44-.38-.44-.76-.76-1.2-1.52-2.34-2.33-3.91.37-1.58,1.19-3.14,1.57-4.73M135.31,453.34c-.37,0,1.58-.76,1.96-1.14,1.2,1.95,1.96,4.67,1.96,7,.81,2.34,0,5.1-.38,7.06-2.72-2.33-1.58-6.24-2.34-9.39-.38-1.2-.81-2.33-1.2-3.54M138.08,451.39q.38,0,.76-.38c.38-.38.76-1.58.76-1.2,1.57,1.57,2.77,4.73,2.77,7.82.75,3.53,2.33,4.72,1.95,4.72-1.2-.38-2.33-1.19-3.15-1.96-.76-1.57-.76-4.29-3.09-9.01M140.41,448.29c-.38,0,.38-1.57.38-1.57.38-.39.76,0,1.2.38,3.91,3.53,1.95,10.15,5.86,13.69.38.76-2.39,0-3.15-1.2-2.33-3.48-1.19-6.25-4.29-11.3M145.09,450.63c-.77-1.95-1.97-3.53-3.54-4.72,2.38-.38,2.38-.76,2.38-.76,1.15,0,2.72.76,3.49,2.33,1.18,4.29.43,6.68,1.95,12.92-2.34-.37-3.1-7.06-4.28-9.77M149.37,440.04c0,.27-.38.44-.38.44-1.57.76-2.72-.44-4.29.38-.41.3-.38-.38-.76-.82-.43,0-1.31-.37-1.19-.37,2.35-1.14,4.29-1.58,6.63.37M149.37,435c-.36,1.07-1.04,2.51-2.11,2.69-.07.01-.51.07-.64.09-1.76.27-3.25.04-5.07,1.51-.38,0-.38-.39-.76,0-.38.38-1.38-.59-1.19-.76,3.91-3.91,5.87-3.15,9.39-3.91,0,0,0,.38.38.38M141.39,434.02c.59-.22,2.93-.86,3.35-.87,1.29-.02,2.68.55,3.86.27.34-.09.38,0,.38,0-.76,1.19-1.96.76-3.9,1.19-3.1.38-3.92,1.14-5.87,3.48-.77,0-.77-.38-1.15-.38.83-2.26,1.69-3.1,3.31-3.69M140.04,431.08s.69-.06.95-.06c.26,0,1,.06,1,.06,0,.39-.19.54-.43.76-1.96,1.58-3.91,3.54-5.05,5.49h-1.96c.39-2.33,1.58-5.86,5.49-6.25M134.55,433.42c-.37,1.19-.8,1.96-1.19,3.15-.03.29-.38-.44-1.57-.82-1.14-2.33-1.52-3.91-1.96-6.62,2.39,1.57,3.53,2.71,4.72,4.29M130.65,435.38h-2.33c-.81-1.58-1.96-3.16-2.39-5.11,3.15.81,4.73,3.53,4.73,5.11M126.73,434.18c-.38.43-.82-.76-2.77,0-.37,0-.76,0-1.52-.76-.62-.69-.81-.39-1.57-1.58,2.33,0,4.29,0,5.87,2.34M122.83,434.61c-.38.38-.81,1.14-1.19,1.52-1.15,0-2.33-.38-3.53-1.14,3.15-2.34,5.1-.82,4.72-.38M117.72,438.9c1.2-.81,2.33-1.19,3.91-1.57v1.57c-1.15,0-2.71.39-4.29.77-.53.11.03-.58.38-.77M116.95,443.06c1.22-1.44,3.65-2.37,4.71-2.85.15-.07.49-.17.55-.17.62.06.64.46.99.81.24.24.18.47.1.71-.09.43-.25.52-.32.57-1.2.64-3.09.35-5.64,1.06-.38.14-.52.04-.39-.13M122.83,442.81c-.38,1.14-.38,1.57-1.19,3.09-3.09.82-2.33,4.34-6.25,5.11-.41.07-.64.02-.76,0,.76-4.68,5.06-7.43,8.21-8.2M122.83,449.43c-3.52,2.34-3.52,5.87-7.45,5.11,0,0-.31-.06-.07-.26,4.35-3.76,4.05-6.02,6.71-7.18,0,.76.42,1.58.81,2.33M123.2,450.25c1.2.77,1.58,1.96,1.96,2.72v1.58c0,.38-.76.38-1.2.38-4.66,1.96-3.09,7.05-8.95,10.15h-.39c3.92-3.53,3.49-10.92,8.58-14.83M103.88,435.08c-.34-.58-.72-.95-1.42-1.28,1.58-.38,3.15,0,3.91,1.58-.6,0-1.2.47-1.82.3-.34-.09-.53-.36-.67-.59M96.23,436.94c1.19-.38,3.14.38,3.52.76.06.03-.21.33-.44.69-.32.51-.66,1.1-.75.89-1.15-2.34-3.1-1.96-2.33-2.34M109.58,476.03c-.03-.12-.14-.46-.18-.5-.16-.15-.29-.16-.64.13-3.52,2.33-5.86,1.52-6.3,1.52,3.91-2.34,3.15-2.71,5.11-5.86-.77-1.14-3.15,1.58-4.68,1.19.7-.35,1.07-1.05,1.76-2.34.07-.12.32-.75.4-.91.8-1.91,2.13-2.23,2.13-2.23-.81-.76-5.09,2.33-5.09,2.33,1.16-3.84,3.07-4.64,3.5-6.52.01-.03.02-.29.02-.34-.01-.07-.04-.11-.08-.12-.06-.02-.25-.04-.46.17-2.68,2.92-4.59,3.34-6.5,3.34.42-1.92,6.48-3.11,7.03-6.51.02-.14-.02-.21-.09-.22-.41-.04-1.21,1.28-2.6,1.63-1.19.38-2.77.38-3.15.38,1.57-1.96,2.34-2.33,3.91-3.91-1.57,0-3.54.82-5.1.82-.24,0-.18-.17-.1-.29.05-.07.2-.22.26-.26,2.34-1.82,4.95-1.45,4.95-3.79,0-.67-.3-1.33-.92-1.78-.09-.06-.38-.19-.61-.18-1.26-.01-3.54-.13-3.14-1.52,2.33.77,4.28-.43,3.47-2.77-.68-1.42-2.03-1.21-3.43-.87-.47.16-.66,0-.74-.06-.99-.84-.26-2.55.46-2.9.16-.11.44-.17.53-.2.92-.31,1.64,1,2.3,0,.04-.07.17-.49.17-.6.11-2.27-2.37-1.27-2.37-2.37.38-1.58,2.34-2.39,3.53-2.39,1.06,0-.56,2.08,1.47,2.35.33.04.87-.21,1.25-.6,1.35-1.42-.76-1.71-.75-2.13.02-1.43,2.89-1.2,3.73-.57.42.24.92,1.03.35,1.58-.64.61-1.23,1.27-1.61,2.39-.24.67-1.2,9.37.08,13.04.19.5.33.62.42.72.75.74,1.77.52,2.45,1.25,1.18,1.14,4.33,6.62,3.91,7-.76,1.19-1.96,1.96-2.72,2.77,0,.76,1.21.76,1.96,1.14.38,0-2.33,2.76-3.91,3.52v.38c1.2,1.19,2.71.38,3.91,1.19-.76,1.95-1.2,1.95-2.33,3.91.37.76,4.28-.38,5.04,0,.43,3-5.81,3.5-6.56,0M94.87,491.39c-.41-.05-1.38-.43-2.56-.1.79-1.52,2.23-1.57,3.41-1.57.11,0,.12.07.12.1-.05.3-.32.63-.62,1.2-.05.08-.18.4-.35.38M96.37,503.42c.58.16,1.11,1.24,1.15,1.71,0,.13-.16.31-.2.35-.62.63-3.1.61-3.81.25,1.1-.37,1.88-1.13,2.63-2.2.03-.05.18-.13.23-.12M137.64,487.38c.82-1.19,2.77-1.94,3.53-.81-.25.4-.36,1.08-.68,1.48-.1.17-.27.2-.46.09-.81-.38-1.57-.77-2.39-.77M149.81,502.2c1.14-1.13,1.52-1.96,1.95-3.09.3-.51,1.05.08,1.53.38,1.19.75-2.34,3.09-3.48,2.71M172.45,489.72c.81.37,1.76,1.61,1.96,1.96.27.49.36,1.48-.38,1.95-1.58.76-4.67,3.92-1.58,7.45-4.28-.82-3.09-3.92-1.95-6.68.19-.46-.13-.59-.39-.38-2.7,2.71-1.94,5.48-3.15,7.82-1.51-1.95-.76-5.11.44-6.63,0,0-.12-.2-.44,0-1.95,1.14-3.1,4.67-3.91,6.63-1.4-1.46-.22-5.23-.03-5.49,0,0,.03-.25-.34,0-1.96,1.57-2.72,3.91-3.53,6.25-1.53-1.14-1.15-3.09-1.15-4.67-1.16.74-.07,4.44-2.87,5.41-.09.03-.26.12-.47-.03-.47-.35-.06-.71.2-1.09.61-.86.77-1.75.29-2.46-.16-.23-.95-.89-1.09-1.03-1.43-1.24-2.86-1.57-4.25-1.57-1.49.22-3.53,1.53-4.71,3.49-.35.48-1.13.69-1.97.43-1.57-.43-3.09-3.16-1.57-4.35.82-.38,1.19.82,2.38.43.67-.37.75-2.5-.54-2.77-.38-.08-.7-.07-1.13.09-.72.28-1.1,1.06-1.6.61-.14-.13-.26-.27-.31-.53-.25-1.18.1-3.64,1.62-3.73.35,0,.53.31.6.43.31.55.62.8.94.8,1.67,0,1.64-1.15,1.35-2.2-.05-.18-.19-.62-.58-.64-.81-.08-1.97.38-2.29-.3-.82-1.14.76-3.09,1.95-3.09,1.52,0,1.15,1.95,2.72,2.33.77.38,2.14.48,3.15,1.18.37.25.63.37.76.76.76,3.53,5.86,3.15,8.58,2.72,5.48-.76,8.63-4.66,4.71-7.37-2.32-1.58-5.86-.44-8.63-.82-4.29-.76-5.05-2.72-3.91-5.87.35-.81,2.27-1.28,2.77-1.57.51-.29,2.71-1.96,2.71-1.14-.7,1.04-1.07,2.76-1.75,4.25-.06.15-.2.46-.14.61.19.31.5.37.76.19,2.33-2.34,2.33-3.1,5.42-5.05,1.19,2.71,4.35,2.71,5.1,0,1.97,1.96,4.47,4.54,4.3,5.05-.39,1.57-1.14,3.91-1.14,5.86.19,1.51,1.94,2.17,3.09,2.77M178.69,495.2c.43-.81,3.15-2.77,4.71-1.58-.37.38-.8,1.96-.8,1.96-1.52-.81-2.33-.81-3.91-.38M181.46,507.69c1.14,0,2.33,0,3.09-.76.44.38.82.76,1.2,1.14-.76.81-3.91.81-4.29-.38M197.12,503.24c.05.58.15,1.84-1.22,2.5,0-1.95,0-2.33-1.57-3.53-.34-.34,1.56-.06,2.53.61.09.07.26.33.27.42M205.22,492.62c-.65.36-1.45.67-2.62.72-1.4.06-2.91-.47-3.55-.1.38,1.53,4.29,1.15,6.63,1.15-1.96,1.95-4.29,1.95-7.01,1.58,0,0,.06.4.74.71,1.48.59,3.4.92,4.7,1.23-1.15.38-2.34,1.2-6.25.38.38,1.2,3.53,2.34,5.11,2.78-1.19.76-2.59,1.13-3.53,1.13-1.9,0-7.52-2.57-9.27,1.27-.15.32-.11.56-.04.74.09.25.24.46.34.7.19.41-.1,1.08-.15,1.19-.58,1.31-2.65,1.21-3.73.47-.19-.14-.44-.33-.67-.87-.24-.57-.37-1.18.05-1.73.14-.19.47-.12.61-.1,2.58.34,1.4-2.76-.81-2.03-.67.33-1.09,1.01-1.96,1.16-.11.02-.45.03-.69-.27-.77-1.03-.74-3.39.28-3.62.32-.05.5.17.55.23.84,1.06,2.98-.09,2.4-1.45-.12-.28-.27-.55-.4-.69-.67-.7-2.42-.26-1.75-1.99.38-.81,1.2-2.39,2.33-2.39.98,0,1.11,1.17,1.58,1.96.23.39,1.18,1.95,2.33,1.95,3.15,0,5.48-4.67,4.34-7.82-1.57-4.29-6.67-2.72-10.58-3.46-10.03-1.56-12.79-7.67-18.92-15.35-.08-.1-.47-.42-.57-.47-.56-.25-.95-.19-1.63.17-4.66,2.34-8.19,4.29-13.24,6.63-.82.37-1.57.76-2.77,1.19.82-1.19,2.33-3.2,3.15-4.34-3.15,1.52-5.48,3.91-9.77,5.87-.38,0-.81,0-.81-.39.44-1.14,1.19-1.57,1.96-3.91-.38-.37-.57.01-1.15.39-4.28,3.16-6.67,5.87-10.58,5.11,0,.75,1.57,2.32,3.91,3.15-1.14,1.13-5.06.75-7.01-.44-.38,1.96,3.09,3.15,3.91,3.53-1.96,1.58-5.87,0-7.82-.76-.38,0,0,.37,0,.37,1.13,2.34,5.86,2.72,7.82,2.72-3.14,1.57-6.25,2.39-9.78.43-.82,1.15,3.09,3.48,3.91,3.91,0,.77-4.29.38-7.06-1.95-.38,1.15,3.15,3.48,3.53,3.91-1.54,1.54-4.78.15-5.88-.33-.3-.13-.51-.25-.62-.27-.07-.01-.13.03-.13.17.39,1.57,2.34,2.38,3.92,3.14-3.16,1.58-5.48-.37-6.68-1.57-.76,0-3.53,2.78-3.53,3.16-.38.75,0,1.58-.38,2.71-.33.71-.94,2.27-1.39,2.39-.07.02-.36-.1-.41-.16-.38-.45.12-2.28-.54-2.61-3.52-1.58-3.15,1.96-4.67,3.15-1.57.75-3.91-1.96-3.91-2.78,0-.33.29-1.28,1.13-.72.06.04.33.27.44.3.18.04.38.01.46-.01.69-.19.69-.78.69-1.14,0-1.14-.38-1.96-1.96-1.52-.34.16-.36.72-.98.82-.16.02-.36.15-.59-.06-1.14-1.2-1.14-3.91-.38-4.29,1.18-.38,1.57,1.14,2.71.76.81-.37.81-2.71,0-3.1-.71-.4-1.79.92-2.54.21-.11-.12-.11-.46-.07-.58.46-1.49,1.52-3.16,2.23-3.16,1.03,0,1.17,2.03,2.45,3.1.2.17,1.38.87,1.74,1.05,2.52,1.22,5.45.81,7.16.14,7.06-3.15,3.91-8.2,6.25-9.39,5.1-2.33,2.77-4.68,4.72-5.87.38.39.38,2.34,1.53,2.77.42-2.38.81-3.91,3.14-3.14.76,1.19,1.57,2.33,2.71,3.14.44,0,.44-2.77.44-3.91,1.95,1.53,5.05,1.53,4.67.76-.38-.38-1.96-2.34-1.96-3.16,1.96,1.2,5.11.44,4.67-.39-.39-.37-.76-.75-.76-1.13.37-.81,1.96-.81,2.71-.81,0-1.58-1.52-3.54,0-5.49,1.2.82,1.58,1.58,3.15,1.58,0-1.14-.38-2.71.38-3.9,3.53,0,6.25,0,8.63-.39,5.05-1.2,8.96-3.14,14.44-4.29,1.57-.37,2.71-.81,4.28-1.19,2.16,0,4.53,1.92,5.64,3.7.31.5,1.29,2.4,1.66,2.89,1.37,1.81,2.97,3.52,4.81,4.76,1.58,1.19,3.15,2.72,3.91,4.67.79,1.29,1.07,2.94,1.72,4.48.33.78,1.16,2.1,2.09,2.61,4.02,2.11,7.64-3.07,9.49-1.22.15.17.25.34.32.49.05.13.21.44.27.48.34.23.61.23.61.23,2.72,0,4.67-.39,7.01-1.59.43,0-3.1,4.3-7.01,4.74.76.75,6.25-.44,7.44-1.2-.81,2.33-3.9,3.91-7.06,3.53l-.23-.04s.08.31.78.57c1.48.32,4.28.61,5.32.61,0,.81-5.87.81-5.87,1.96,4.67-.77,5.1.82,7.06,0,.45.49-.32,1.23-1.27,1.76"/>
    <path class="cls-2" d="M153.28,499.49c-.48-.29-1.23-.89-1.53-.38-.43,1.14-.81,1.96-1.95,3.09,1.14.38,4.67-1.95,3.48-2.71"/>
    <path class="cls-2" d="M103.88,435.08c.14.24.33.51.67.6.63.17,1.22-.3,1.83-.3-.77-1.58-2.34-1.95-3.91-1.58.7.33,1.08.7,1.42,1.28"/>
    <path class="cls-2" d="M183.41,493.63c-1.57-1.2-4.28.76-4.72,1.57,1.58-.43,2.39-.43,3.91.38,0,0,.43-1.58.81-1.96"/>
    <path class="cls-2" d="M98.56,439.29c.09.21.43-.38.75-.89.23-.37.5-.67.44-.69-.38-.38-2.34-1.14-3.52-.76-.77.38,1.18,0,2.33,2.34"/>
    <path class="cls-2" d="M128.31,450.63c-2.39,2.34-1.57,7.01-.81,7.01.81.43,4.28-3.48,2.76-6.63-.43-.77-1.19,3.14-1.95,4.28h-.44c0-1.57.44-3.09.81-4.67,0,0-.37-.38-.37,0"/>
    <path class="cls-2" d="M139.41,499.06c-1.19-.18-3.29,1.62-3.29,2.38,1.14-.37,1.52-.81,3.47-.81h.44c-.4-.7-.43-.75-.44-1.36,0-.05,0-.2-.19-.21"/>
    <path class="cls-2" d="M95.72,489.72c-1.18,0-2.62.06-3.41,1.57,1.19-.32,2.16.06,2.56.1.18.03.31-.29.35-.38.3-.57.57-.9.62-1.2,0-.03-.01-.1-.12-.1"/>
    <path class="cls-2" d="M96.37,503.42c-.05-.01-.2.07-.23.12-.74,1.06-1.53,1.83-2.63,2.2.71.36,3.19.38,3.81-.25.04-.04.21-.22.2-.35-.03-.47-.56-1.55-1.15-1.71"/>
    <path class="cls-2" d="M140.49,488.06c.32-.4.43-1.08.68-1.48-.76-1.14-2.71-.39-3.53.8.82,0,1.59.39,2.39.77.19.11.36.08.46-.09"/>
    <path class="cls-2" d="M91.17,499.11c1.39-.74,1.87-.81,2.8-.53.1.03.3-.08.3-.08v-1.35c-.38-.42-2.72.39-3.09,1.96"/>
    <path class="cls-2" d="M138.84,492.43c-1.2-.38-3.15.38-3.54,1.57.75-.35,1.45-.38,2.48-.09.1.03.48.19.56.23.3.15.52.21.49-.14-.38-1.57.38-1.5,0-1.57"/>
    <path class="cls-2" d="M94.65,441.99c-.37.43.72,3.32,1.83,3.18.04,0,.14-.06.15-.23.1-.41.41-1.05.41-1.37-1.95-.39-1.95-1.58-2.38-1.58"/>
    <path class="cls-2" d="M181.46,507.69c.38,1.2,3.53,1.2,4.29.38-.38-.38-.76-.76-1.2-1.13-.76.76-1.95.76-3.09.76"/>
    <path class="cls-2" d="M181.08,500.63c-1.19,0-2.39,2.39-2.39,3.15.81-.38,3.53-.38,3.15-.76-.38-.82-.76-1.58-.76-2.39"/>
    <path class="cls-2" d="M196.85,502.82c-.96-.68-2.86-.95-2.53-.61,1.57,1.2,1.57,1.58,1.57,3.53,1.37-.65,1.27-1.92,1.22-2.5,0-.09-.17-.35-.27-.42"/>
  </g>
</svg>